<svg viewBox="0 0 340 340" xmlns="http://www.w3.org/2000/svg" xmlns:xlink="http://www.w3.org/1999/xlink"><radialGradient id="a" cx="187.285" cy="195.473" gradientUnits="userSpaceOnUse" r="86.553"><stop offset="0" stop-color="#f97d7d"/><stop offset="1" stop-color="#fcd0be"/></radialGradient><linearGradient id="b" gradientUnits="userSpaceOnUse" x1="164.845" x2="164.845" y1="-.767" y2="370.242"><stop offset="0" stop-color="#fcd0be"/><stop offset="1" stop-color="#efa69a"/></linearGradient><linearGradient id="c" x1="298.263" x2="92.883" xlink:href="#b" y1="250.795" y2="316.729"/><linearGradient id="d" gradientUnits="userSpaceOnUse" x1="81.758" x2="81.758" y1="25.139" y2="138.493"><stop offset="0" stop-color="#c6bab9"/><stop offset="1" stop-color="#af9594"/></linearGradient><linearGradient id="e" x1="271.506" x2="271.506" xlink:href="#d" y1="25.139" y2="138.493"/><linearGradient id="f" x1="259.065" x2="259.065" xlink:href="#d" y1="25.139" y2="138.493"/><linearGradient id="g" gradientUnits="userSpaceOnUse" x1="11.398" x2="56.153" y1="110.921" y2="272.249"><stop offset="0" stop-color="#f3f8ff"/><stop offset="1" stop-color="#c9d4e5"/></linearGradient><path d="m64.151 234.181h27.725a13.806 13.806 0 0 1 13.634 11.573c1.109 6.777 2.415 16.182 3.334 27.269h-30.6z" fill="#464965"/><path d="m48.092 171.86-3.618-22.524a4.856 4.856 0 0 0 -5.22-3.933c-6.459.472-26.277 7.683-26.277 7.683l7.284 39.592 10.813-8.151-.107-.486z" fill="#464965"/><path d="m193.122 167.162-36.747 33.021s-10.468 50.758-17.631 125.382h188.911s-6.536-99.21-28.851-149.35l-58.382-21.06-9.158-24.265z" fill="url(#a)"/><path d="m173.471 211.644s2.6 73.712 74.329 113.921h65.872z" fill="#cc6262"/><path d="m228.401 123.305-45.854 14.617 10.575 29.24 38.544-35.208z" fill="#464965"/><path d="m101.315 18.526s-1.352 18.928 14.872 28.392l-13.52 5.746s6.084 14.534 24 20.279c0 0 16.9 49.348 33.461 75.711l68.272-25.349-24.4-76.805a13.394 13.394 0 0 0 -12.489-9.347c-17.345-.362-55.543-3.053-90.196-18.627z" fill="url(#b)"/><path d="m175.137 126.864 30.081-12.231s-3.919-12.674-13.4-16.518c0 0-6.9-1.1-12.536 2.373-15.299 9.445-4.145 26.376-4.145 26.376z" fill="#fc6b98"/><path d="m177.109 99.388c-18.265 9.061-4.44 28.6-4.44 28.6l8.064-3.309c-1.582-2.79-5.882-11.759-.367-18.682a23.949 23.949 0 0 1 11.447-7.869c-3.913-1.588-8.774-1.682-14.704 1.26z" fill="#464965"/><path d="m291.186 281.182s-28.949-7.176-47.258-27.712l1.042-1.481a16.037 16.037 0 0 0 2.76-11.494l-3.8-26.614-1.136-.32a10.183 10.183 0 0 0 -12.84 8.291l-1.554 10.339a187.825 187.825 0 0 1 -15.6-29.9 8.4 8.4 0 0 0 -11.723-4.373l-24.7 12.99a210.417 210.417 0 0 0 12.991 35.05 122.054 122.054 0 0 0 37.832 45.642c21.282 15.69 57.677 36.193 100.452 33.969z" fill="url(#c)"/><path d="m103.272 89.92c-3.157-9.216-8.75-13.334-13.749-15.1a21.728 21.728 0 0 0 -15.707.742c-16.862 7.164-14.57 23.138-14.57 23.138s.662 15.713 16.447 15.713a16.418 16.418 0 0 0 12.474-5.736 13.611 13.611 0 0 0 16.208-13.387 27.192 27.192 0 0 0 -1.103-5.37z" fill="url(#d)"/><path d="m285.334 15.765c-7.048-5.344-13.348-5.613-18.01-4.412a19.731 19.731 0 0 0 -11.458 8.516c-9.075 13.942.746 24.817.746 24.817s8.46 11.5 20.353 3.506a14.862 14.862 0 0 0 6.088-8.538 5.718 5.718 0 0 1 2.447-3.2l.02-.014a12.382 12.382 0 0 0 3.366-17.184 24.767 24.767 0 0 0 -3.552-3.491z" fill="url(#e)"/><circle cx="259.065" cy="100.792" fill="url(#f)" r="10.718"/><circle cx="115.092" cy="166.351" fill="#e8dada" r="13.265"/><path d="m18.679 178.961 31.475-16.545a2.824 2.824 0 0 1 4.072 1.891l24.013 108.716h-49.893l-15.776-81.34a11.829 11.829 0 0 1 6.109-12.722z" fill="url(#g)"/><circle cx="120.887" cy="123.305" fill="#e8dada" r="7.47"/><circle cx="295.807" cy="71.557" fill="#e8dada" r="6.22"/><g fill="#464965"><path d="m28.346 276.523h80.5a3.5 3.5 0 0 0 3.488-3.789c-.775-9.353-1.908-18.621-3.368-27.545a17.245 17.245 0 0 0 -17.088-14.508h-19.4l-15.631-70.741a3.394 3.394 0 0 0 -1.945-2.419c-2.055-.868-5.459 1.315-5.459 1.315l-1.281-8.449a9.817 9.817 0 0 0 -10.765-8.3 77.237 77.237 0 0 0 -15.3 3.319l-.019.008a77.255 77.255 0 0 0 -11.348 4.574 3.5 3.5 0 0 0 -1.8 3.783l4.871 24.388a15.215 15.215 0 0 0 -4.657 14.19l15.766 81.341c.336 1.698 1.51 2.617 3.436 2.833zm63.53-38.842a10.272 10.272 0 0 1 10.18 8.638c1.232 7.536 2.227 15.324 2.965 23.2h-23.97l-7.033-31.842zm-25.645-2.8v.006l7.65 34.633h-42.045c.386-7.042 3.551-23.439 24.335-27.363a3.5 3.5 0 0 0 -1.3-6.879c-15.2 2.871-22.752 11.362-26.48 19.6l-12.385-63.86a8.278 8.278 0 0 1 4.3-8.958l30.694-16.134zm-42-82.811h.011a70.324 70.324 0 0 1 13.9-3.021 2.824 2.824 0 0 1 3.1 2.389l1.644 10.847-22.739 11.95-3.827-19.158a79.5 79.5 0 0 1 7.91-3.004z"/><path d="m172.67 131.489a3.5 3.5 0 0 0 1.328-.263l8.063-3.309a3.438 3.438 0 0 0 .662-.36l23.813-9.682a3.5 3.5 0 0 0 2.025-4.276c-.179-.582-4.534-14.311-15.427-18.728-.06-.024-.12-.032-.18-.052-5.364-2.114-11.216-1.635-17.4 1.434-5.847 2.9-9.494 7.073-10.839 12.4-2.6 10.31 4.782 20.908 5.1 21.354a3.5 3.5 0 0 0 2.855 1.482zm10.43-23.312a20.207 20.207 0 0 1 8.556-6.269c4.573 2.432 7.524 7.527 9.023 10.79l-18.25 7.421c-1.277-3.242-2.345-8.15.671-11.942zm-11.6 2.168c.838-3.29 3.179-5.848 7.157-7.821l.106-.053q-.588.651-1.141 1.345c-5.172 6.492-3.554 14.178-1.676 18.937l-1.876.763c-1.593-3.03-3.787-8.37-2.563-13.171z"/><path d="m299.991 172.923-56.864-20.513-11.416-30.248-24.372-76.725a16.893 16.893 0 0 0 -15.752-11.787c-18.816-.388-55.377-3.283-88.837-18.316a3.5 3.5 0 0 0 -4.926 2.943c-.055.765-1.04 16.923 11.3 27.841l-7.824 3.325a3.5 3.5 0 0 0 -1.86 4.572c.266.635 6.539 15.191 24.48 21.689 3.117 8.9 18.156 50.793 33.244 74.812a3.5 3.5 0 0 0 4.182 1.42l19.88-7.382 7.8 21.581-34.991 31.445a3.5 3.5 0 0 0 -1.088 1.9c-.1.51-10.588 51.8-17.687 125.755-.011.113 0 .222 0 .334h7c6.481-67.366 15.761-115.7 17.317-123.555l70.636-63.99 6.933 18.371a3.506 3.506 0 0 0 2.087 2.057l56.967 20.548c18.985 43.986 26.274 125.187 27.693 143.2-39.412.879-73.072-17.536-94.615-33.42a119.02 119.02 0 0 1 -36.75-44.324 214.206 214.206 0 0 1 -12.028-31.756l4.41-2.319c1.817 5.2 5.153 14.409 7.916 20.12a3.5 3.5 0 1 0 6.3-3.049c-2.765-5.712-6.282-15.557-7.95-20.367l4.924-2.585c1.966 4.852 5.664 13.609 9.483 20.7a3.5 3.5 0 0 0 6.164-3.318c-3.8-7.05-7.582-16.106-9.418-20.659l.384-.2a4.895 4.895 0 0 1 6.836 2.554 189.337 189.337 0 0 0 15.933 30.541 3.5 3.5 0 0 0 6.385-1.405l1.55-10.339a6.692 6.692 0 0 1 7.386-5.652l3.467 24.272a12.481 12.481 0 0 1 -2.158 8.984l-1.043 1.481a3.5 3.5 0 0 0 .251 4.343c18.814 21.1 47.8 28.476 49.03 28.779a3.5 3.5 0 0 0 1.686-6.793c-.27-.067-26.225-6.7-43.628-24.641a19.446 19.446 0 0 0 2.786-13.147l-3.8-26.614a3.5 3.5 0 0 0 -2.514-2.873l-1.135-.32a13.685 13.685 0 0 0 -17.254 11.14l-.114.757a167.626 167.626 0 0 1 -10.316-21.074 11.9 11.9 0 0 0 -16.61-6.192l-24.7 12.991a3.5 3.5 0 0 0 -1.766 3.951 212.065 212.065 0 0 0 13.227 35.7 126.055 126.055 0 0 0 38.914 46.945c21.908 16.151 55.91 34.822 96.031 34.82 2.206 0 4.438-.057 6.68-.174 2.1-.062 3.4-1.3 3.31-3.725 0 0-6.833-100.409-29.146-150.543a3.5 3.5 0 0 0 -2.01-1.866zm-138.385-28.552c-15.68-26.229-31.467-72.087-31.629-72.562a3.5 3.5 0 0 0 -2.243-2.2 37.183 37.183 0 0 1 -20.15-15.234l9.973-4.238a3.5 3.5 0 0 0 .394-6.245c-9.275-5.41-12.054-14.3-12.856-19.935 33.1 13.593 67.968 16.31 86.347 16.689a9.9 9.9 0 0 1 9.225 6.907l23.389 73.63zm33.025 16.673-6.845-18.926 38.57-14.32 1.2 3.172z"/></g></svg>