<svg viewBox="0 0 64 64" xmlns="http://www.w3.org/2000/svg"><circle cx="6.5" cy="9.5" fill="#34c1ad" r="1.5"/><circle cx="6.5" cy="28.5" fill="#34c1ad" r="1.5"/><path d="m19 12h9c5 0 6 4 6 7v17l1.9 1.27a2.451 2.451 0 0 1 1.1 2.05v.21a2.475 2.475 0 0 1 -2.47 2.47 2.242 2.242 0 0 1 -.52-.06 2.44 2.44 0 0 1 -1.69-1.31l-.32-.63-.32.63a2.44 2.44 0 0 1 -1.69 1.31 2.242 2.242 0 0 1 -.52.06 2.458 2.458 0 0 1 -2.47-2.47v-.21a2.451 2.451 0 0 1 1.1-2.05l1.9-1.27v-14.58c0-1.48-.52-2.42-2-2.42h-7v-4h-1.56a1.438 1.438 0 0 1 -1.08-2.39c.15-.17.35-.4.56-.67z" fill="#ff5d54"/><circle cx="23.5" cy="46.5" fill="#34c1ad" r="1.5"/><circle cx="40.5" cy="50.5" fill="#34c1ad" r="1.5"/><path d="m20.24 37.25c1.55-2.07 4.24-5.25 6.09-5.25a3.946 3.946 0 0 1 3.67 2v2l-1.9 1.27a2.451 2.451 0 0 0 -1.1 2.05v.21a2.458 2.458 0 0 0 2.47 2.47 2.242 2.242 0 0 0 .52-.06l.01.06v7.05a3.907 3.907 0 0 1 -1.45 3.08l-4.06 3.16a3.292 3.292 0 0 1 -2.02.71 3.491 3.491 0 0 1 -3.2-2.32 4.131 4.131 0 0 1 -.27-1.47v-11.16a6.311 6.311 0 0 1 1.24-3.8zm3.26 10.75a1.5 1.5 0 1 0 -1.5-1.5 1.5 1.5 0 0 0 1.5 1.5z" fill="#e7544c"/><path d="m39 50.5a1.5 1.5 0 1 0 1.5-1.5 1.5 1.5 0 0 0 -1.5 1.5zm6-9.45v11.16a4.131 4.131 0 0 1 -.27 1.47 3.491 3.491 0 0 1 -3.2 2.32 3.292 3.292 0 0 1 -2.02-.71l-4.06-3.16a3.907 3.907 0 0 1 -1.45-3.08v-7.05l.01-.06a2.242 2.242 0 0 0 .52.06 2.475 2.475 0 0 0 2.47-2.47v-.21a2.451 2.451 0 0 0 -1.1-2.05l-1.9-1.27v-2a3.946 3.946 0 0 1 3.67-2c1.85 0 4.54 3.18 6.09 5.25a6.311 6.311 0 0 1 1.24 3.8z" fill="#e7544c"/><path d="m56 41-1.09-4.9a7 7 0 0 0 -4.96-5.22l-12.95-3.88v-8c3-2 4-4 4-6v-4a8 8 0 0 0 -8-8h-5a7.158 7.158 0 0 0 -5.94 3.07 5.489 5.489 0 0 0 -1.06 2.93 8.846 8.846 0 0 1 -2.08 4.94l.08.06h9c5 0 6 4 6 7v15a3.946 3.946 0 0 1 3.67-2c1.85 0 4.54 3.18 6.09 5.25a6.311 6.311 0 0 1 1.24 3.8v11.16a4.131 4.131 0 0 1 -.27 1.47 3.491 3.491 0 0 1 -3.2 2.32 3.292 3.292 0 0 1 -2.02-.71l-4.06-3.16a3.907 3.907 0 0 1 -1.45-3.08v-7.05l.01-.06a2.44 2.44 0 0 1 -1.69-1.31l-.32-.63-.32.63a2.44 2.44 0 0 1 -1.69 1.31l.01.06v7.05a3.907 3.907 0 0 1 -1.45 3.08l-4.06 3.16a3.292 3.292 0 0 1 -2.02.71 3.491 3.491 0 0 1 -3.2-2.32 4.131 4.131 0 0 1 -.27-1.47v-11.16a6.311 6.311 0 0 1 1.24-3.8c1.55-2.07 4.24-5.25 6.09-5.25a3.946 3.946 0 0 1 3.67 2v-12.58c0-1.48-.52-2.42-2-2.42h-7v1a2.006 2.006 0 0 0 2 2h4v5l-12.95 3.88a7 7 0 0 0 -4.96 5.22l-1.09 4.9-4 22h10l2-10 .69 1.71 3.31 8.29h24l3.31-8.29.69-1.71 2 10h10z" fill="#f2c4b2"/><path d="m28.55 52.13-4.06 3.16a3.292 3.292 0 0 1 -2.02.71 3.491 3.491 0 0 1 -3.2-2.32 4.131 4.131 0 0 1 -.27-1.47v3a4.131 4.131 0 0 0 .27 1.47 3.491 3.491 0 0 0 3.2 2.32 3.292 3.292 0 0 0 2.02-.71l4.06-3.16a3.907 3.907 0 0 0 1.45-3.08v-3a3.907 3.907 0 0 1 -1.45 3.08z" fill="#f2b59d"/><path d="m41.53 56a3.292 3.292 0 0 1 -2.02-.71l-4.06-3.16a3.907 3.907 0 0 1 -1.45-3.08v3a3.907 3.907 0 0 0 1.45 3.08l4.06 3.16a3.292 3.292 0 0 0 2.02.71 3.491 3.491 0 0 0 3.2-2.32 4.131 4.131 0 0 0 .27-1.47v-3a4.131 4.131 0 0 1 -.27 1.47 3.491 3.491 0 0 1 -3.2 2.32z" fill="#f2b59d"/><circle cx="30" cy="17" fill="#34c1ad" r="1"/><circle cx="27" cy="15" fill="#34c1ad" r="1"/><circle cx="3" cy="24" fill="#21abab" r="1"/><circle cx="6" cy="19" fill="#21abab" r="1"/><circle cx="3" cy="14" fill="#21abab" r="1"/><path d="m16 17a1 1 0 0 1 -.554-.168l-6-4a1 1 0 0 1 1.11-1.664l6 4a1 1 0 0 1 -.556 1.832z" fill="#21abab"/><path d="m10 27a1 1 0 0 1 -.556-1.832l6-4a1 1 0 1 1 1.11 1.664l-6 4a1 1 0 0 1 -.554.168z" fill="#21abab"/><path d="m16 20h-7a1 1 0 0 1 0-2h7a1 1 0 0 1 0 2z" fill="#21abab"/><path d="m25.874 49.9-3.266 2.612a2.22 2.22 0 0 1 -3.608-1.733v1.431a4.131 4.131 0 0 0 .27 1.47 3.491 3.491 0 0 0 3.2 2.32 3.292 3.292 0 0 0 2.02-.71l4.06-3.16a3.907 3.907 0 0 0 1.45-3.08v-7.05l-.01-.06a2.242 2.242 0 0 1 -.52.06 2.458 2.458 0 0 1 -2.47-2.47v8.028a3 3 0 0 1 -1.126 2.342z" fill="#c74841"/><path d="m42.779 53a2.219 2.219 0 0 1 -1.387-.487l-.67-.535a1.458 1.458 0 0 1 -1.711-1.369l-.885-.708a3 3 0 0 1 -1.126-2.343v-8.028a2.475 2.475 0 0 1 -2.47 2.47 2.242 2.242 0 0 1 -.52-.06l-.01.06v7.05a3.907 3.907 0 0 0 1.45 3.08l4.06 3.16a3.292 3.292 0 0 0 2.02.71 3.491 3.491 0 0 0 3.2-2.32 4.131 4.131 0 0 0 .27-1.47v-1.431a2.221 2.221 0 0 1 -2.221 2.221z" fill="#c74841"/><circle cx="40" cy="39" fill="#34c1ad" r="1"/><circle cx="41" cy="44" fill="#34c1ad" r="1"/><circle cx="22" cy="42" fill="#34c1ad" r="1"/><circle cx="24" cy="38" fill="#34c1ad" r="1"/><circle cx="24" cy="51" fill="#34c1ad" r="1"/><circle cx="37" cy="46" fill="#34c1ad" r="1"/><g fill="#c74841"><circle cx="42.5" cy="46.5" r=".5"/><circle cx="20.5" cy="46.5" r=".5"/><circle cx="38.5" cy="41.5" r=".5"/><circle cx="25.5" cy="41.5" r=".5"/><circle cx="26.5" cy="35.5" r=".5"/><circle cx="41.5" cy="36.5" r=".5"/><circle cx="32.5" cy="25.5" r=".5"/></g><circle cx="31.5" cy="29.5" fill="#34c1ad" r=".5"/><circle cx="31.5" cy="20.5" fill="#34c1ad" r=".5"/><circle cx="25.5" cy="17.5" fill="#c74841" r=".5"/><circle cx="23.5" cy="14.5" fill="#34c1ad" r=".5"/><circle cx="36.5" cy="35.5" fill="#c74841" r=".5"/><path d="m11.757 56.97a4 4 0 0 1 -3.88 3.03h-3.332l-.545 3h10l2-10v-13z" fill="#f2b59d"/><path d="m56.123 60a4 4 0 0 1 -3.88-3.03l-4.243-16.97v13l2 10h10l-.545-3z" fill="#f2b59d"/><circle cx="40.5" cy="50.5" fill="#13969d" r="1"/><circle cx="23.5" cy="46.5" fill="#13969d" r="1"/><path d="m27 22h3v5h-3z" fill="#f2b59d"/><path d="m37 19-3 2v6h3z" fill="#f2b59d"/></svg>