<svg viewBox="0 0 340 340" xmlns="http://www.w3.org/2000/svg" xmlns:xlink="http://www.w3.org/1999/xlink"><radialGradient id="a" cx="171.379" cy="232.932" gradientUnits="userSpaceOnUse" r="99.663"><stop offset="0" stop-color="#f97d7d"/><stop offset="1" stop-color="#fcd0be"/></radialGradient><linearGradient id="b" gradientUnits="userSpaceOnUse" x1="153.002" x2="153.002" y1="103.011" y2="334.434"><stop offset="0" stop-color="#ff6185"/><stop offset="1" stop-color="#e2407a"/></linearGradient><path d="m96.065 11.75s-2.429 14.4 8.9 29.37l-14.565 2.429s2.023 7.285 14.57 15.784v69.209h31.164v23.07a310.7 310.7 0 0 1 -47.081 30.967 26.167 26.167 0 0 0 -13.785 20.289c-2.635 23.772-7.035 74.037-4.7 128.882h199.532s-3.164-78.779-15.062-135.365a26.242 26.242 0 0 0 -13.046-17.553c-10.3-5.678-26.242-14.778-37.82-22.851a21.657 21.657 0 0 1 -9.257-17.847c.054-18.194-.3-56.309-3.689-87.28a13.391 13.391 0 0 0 -10.886-11.709c-15.924-2.945-49.465-10.595-84.275-27.395z" fill="url(#a)"/><path d="m139.8 207.9v-13.228a8.622 8.622 0 0 0 -12.173-7.889c-25.969 12.057-33.046 40.425-34.972 55.459a8.64 8.64 0 0 0 8.568 9.747h22.423a16.154 16.154 0 0 0 16.154-16.154v-5.735a3.431 3.431 0 0 1 3.432-3.431h16.958v-15.342h-16.962a3.431 3.431 0 0 1 -3.428-3.427z" fill="#464965"/><path d="m195.247 207.9v-13.228a8.622 8.622 0 0 1 12.173-7.889c25.969 12.057 33.046 40.425 34.972 55.459a8.639 8.639 0 0 1 -8.568 9.747h-22.424a16.154 16.154 0 0 1 -16.154-16.154v-5.735a3.431 3.431 0 0 0 -3.431-3.431h-17.27v-15.342h17.271a3.431 3.431 0 0 0 3.431-3.427z" fill="#464965"/><path d="m120.526 315.991a13.138 13.138 0 0 1 13.138-13.138h8.493s4.141 17.873 21.795 17.873c0 0 34.132 4.119 37.074-27.364 0 0 5.921-19.894-17.3-39.709a25.972 25.972 0 0 1 -9.184-19.733v-110.332a28.247 28.247 0 0 0 -28.242-28.246h-41.331v13.269h37.991a17.23 17.23 0 0 1 17.23 17.23v111.91a41.548 41.548 0 0 0 2.727 14.958c2.165 5.614 4.159 14.614-.295 23.171-7.052 13.547-25.873 11.425-25.873 11.425h-5.336a27.111 27.111 0 0 0 -27.113 27.111v17.334h16.224z" fill="url(#b)"/><g fill="#464965"><path d="m131.414 290.805s25.276 4.976 34.312-13.308c4.784-9.681 3-19.452.456-26.048a37.929 37.929 0 0 1 -2.492-13.7v-111.908a20.753 20.753 0 0 0 -20.729-20.73h-37.992a3.5 3.5 0 0 0 -3.5 3.5v19.931a3.5 3.5 0 0 0 3.5 3.5h27.664v17.892a311.738 311.738 0 0 1 -45.21 29.548 29.617 29.617 0 0 0 -15.634 23c-2.758 24.872-7.035 74.721-4.725 129.268h6.991c0-.05.011-.1.009-.149-2.3-54.139 1.944-103.652 4.682-128.347a22.625 22.625 0 0 1 11.936-17.577 310.962 310.962 0 0 0 47.676-31.363 3.5 3.5 0 0 0 1.275-2.7v-23.07a3.5 3.5 0 0 0 -3.5-3.5h-27.664v-12.933h34.492a13.745 13.745 0 0 1 13.729 13.73v81.986h-13.39v-13.155a12.138 12.138 0 0 0 -5.641-10.276 11.943 11.943 0 0 0 -11.506-.788c-27.305 12.678-34.882 41.9-36.969 58.189a12.138 12.138 0 0 0 12.039 13.692h22.423a19.677 19.677 0 0 0 19.654-19.654v-5.666h13.39v7.582a44.886 44.886 0 0 0 2.961 16.217c2.025 5.251 3.645 13.035-.134 20.3-5.837 11.214-28.1 9.541-28.1 9.541a30.646 30.646 0 0 0 -30.617 30.607v17.334h7v-17.334a23.638 23.638 0 0 1 23.614-23.611zm25.276-67.636h-16.89a3.5 3.5 0 0 0 -3.5 3.5v9.166a12.669 12.669 0 0 1 -12.654 12.654h-22.427a5.139 5.139 0 0 1 -5.1-5.8c1.9-14.859 8.718-41.467 32.975-52.73a4.908 4.908 0 0 1 4.791.34 5.17 5.17 0 0 1 2.407 4.375v16.655a3.5 3.5 0 0 0 3.5 3.5h16.898z"/><path d="m133.664 306.353h5.9c2.661 7.324 10.038 17.775 24.194 17.872 2.157.221 18 1.492 29.445-7.744 6.521-5.26 10.316-12.828 11.282-22.5.775-3.077 4.716-23.2-18.48-42.994a22.456 22.456 0 0 1 -7.958-17.071v-3.751h13.7v5.666a19.676 19.676 0 0 0 19.653 19.658h22.424a12.14 12.14 0 0 0 12.04-13.689c-2.087-16.29-9.664-45.511-36.971-58.189a11.944 11.944 0 0 0 -11.5.788 12.139 12.139 0 0 0 -5.64 10.276v13.155h-13.7v-84.242a31.782 31.782 0 0 0 -31.753-31.746h-37.831v-32.509a3.5 3.5 0 0 0 -1.537-2.9 43.492 43.492 0 0 1 -11.114-10.239l9.726-1.621a3.5 3.5 0 0 0 2.216-5.564 40 40 0 0 1 -8.378-21.825 350.021 350.021 0 0 0 80.32 25.4 9.838 9.838 0 0 1 8.044 8.648c3.327 30.391 3.726 67.484 3.668 86.89a25.171 25.171 0 0 0 10.755 20.729c11.481 8 27.074 16.95 38.132 23.044a22.72 22.72 0 0 1 11.311 15.208c11.475 54.572 14.83 130.983 14.984 134.645h6.992c0-.048.01-.093.008-.141-.031-.79-3.312-79.722-15.135-135.944a29.7 29.7 0 0 0 -14.781-19.9c-10.912-6.014-26.276-14.826-37.508-22.657a18.169 18.169 0 0 1 -7.758-14.965c.058-19.552-.345-56.942-3.709-87.672a16.8 16.8 0 0 0 -13.728-14.769 341.032 341.032 0 0 1 -83.391-27.1 3.5 3.5 0 0 0 -4.972 2.57c-.1.585-2.086 13.191 6.41 27.4l-9.2 1.534a3.5 3.5 0 0 0 -2.8 4.389c.233.837 2.554 8.161 14.443 16.675v34.174a3.5 3.5 0 0 0 3.5 3.5h41.333a24.774 24.774 0 0 1 24.746 24.746v110.332a29.444 29.444 0 0 0 10.413 22.4c21.036 17.953 16.415 35.339 16.214 36.048a3.433 3.433 0 0 0 -.129.673c-.734 7.842-3.663 13.888-8.705 17.971-9.711 7.863-24.325 6.258-24.465 6.244a3.452 3.452 0 0 0 -.419-.025c-14.587 0-18.241-14.556-18.387-15.164a3.5 3.5 0 0 0 -3.409-2.709h-8.493a16.656 16.656 0 0 0 -16.638 16.638v15.754h7v-15.759a9.649 9.649 0 0 1 9.636-9.638zm44.38-91.526h17.2a3.5 3.5 0 0 0 3.5-3.5v-16.655a5.172 5.172 0 0 1 2.406-4.376 4.911 4.911 0 0 1 4.792-.339c24.257 11.263 31.071 37.871 32.974 52.729a5.139 5.139 0 0 1 -5.095 5.8h-22.421a12.667 12.667 0 0 1 -12.653-12.654v-9.166a3.5 3.5 0 0 0 -3.5-3.5h-17.2z"/></g></svg>