<svg viewBox="0 0 340 340" xmlns="http://www.w3.org/2000/svg" xmlns:xlink="http://www.w3.org/1999/xlink"><radialGradient id="a" cx="48.566" cy="182.613" gradientUnits="userSpaceOnUse" r="160.248"><stop offset="0" stop-color="#f97d7d"/><stop offset="1" stop-color="#fcd0be"/></radialGradient><linearGradient id="b" gradientUnits="userSpaceOnUse" x1="222.514" x2="222.514" y1="28.378" y2="355.57"><stop offset="0" stop-color="#fcd0be"/><stop offset="1" stop-color="#efa69a"/></linearGradient><path d="m210.133 183.979-3.672 41.971s-62.284 2.753-114.132-1.845a13.448 13.448 0 0 1 -12.175-11.981c-1.739-16.291-4.583-47.957-3.78-74.6a15.552 15.552 0 0 1 4.62-10.6c4.035-3.984 9.372-12.753 8.7-31.033a15.525 15.525 0 0 0 -8.37-13.137l-4.973-2.6-1.158-15.891a12.245 12.245 0 0 0 -12.212-11.354h-37a12.238 12.238 0 0 0 -12.208 11.3c-2.452 31.971-8.562 125.729-2.579 202.551a36.81 36.81 0 0 0 35.455 33.888l104.291 3.6v27.502h180.4s.506-31.31-2.262-60.343a43.2 43.2 0 0 0 -25.061-35.2l-27.786-12.691a12.405 12.405 0 0 1 -7.252-11.47l.349-23.506z" fill="url(#a)"/><path d="m269.326 188.543-59.193-4.564-3.672 41.971 62.728-28.147z" fill="#464965"/><path d="m159.705 11.75s39.731 29.75 118.457 39.535a14.105 14.105 0 0 1 12.325 13.664c.6 23.9 1.574 78.1-.349 123.594h-106.216s-5.523-66.279-5.948-107.916c0 0-19.969-5.948-24.217-21.668l19.119-2.124s-18.27-14.544-13.171-45.085z" fill="url(#b)"/><path d="m272.216 99.211c-5.031-13.745-8.624-25.481-8.624-25.481s-3.592 11.736-8.623 25.481c-2.684 7.333-.528 11.547 2.3 13.928a9.684 9.684 0 0 0 12.649 0c2.826-2.381 4.982-6.595 2.298-13.928z" fill="#fff"/><path d="m205.205 171.75 21.31-1.243 23.42-26.5a28.482 28.482 0 0 0 -5.061-4.489 25.129 25.129 0 0 0 -39.014 14.467 48.631 48.631 0 0 0 -.655 17.765z" fill="#464965"/><path d="m249.928 144.014c-6.257-.545-18.436.021-22.669 11.764a26.72 26.72 0 0 0 -.744 14.729l32.537-1.9s-.008-14.349-9.124-24.593z" fill="#fc6b98"/><g fill="#fff"><path d="m43.747 133.7s-.128-.165-.372-.433c-6.024-6.619-17.261-3.5-18.838 5.31-.868 4.849.943 11.246 11.761 17.342l-.539 32.181 9.221-9.488a13.956 13.956 0 0 0 3.948-9.727v-12.97s18.235-6.894 11.972-19.415c-6.417-12.839-17.153-2.8-17.153-2.8z"/><path d="m39.4 209.2 10.523-13.6s-.9 29.017 6.748 46.563c0 0 8.937-5.447 17.57-2.8a10.343 10.343 0 0 1 7.259 11.526c-.778 4.531-4.078 9.648-14.707 10.615 0 0 4.158 12.176-3.332 17.587a10.293 10.293 0 0 1 -12.818-.938c-3.535-3.155-7.169-8.92-5.589-18.886a13.873 13.873 0 0 0 -1.075-7.774c-2.81-6.348-7.717-19.633-7.384-34.387a13.415 13.415 0 0 1 2.805-7.906z"/><path d="m94.664 259.883a14.081 14.081 0 0 1 -5.347 3.6c-3.072 1.238-9.045 4.878-7.673 14.2 0 0 .858 8.929 10.176 7.959 5.68-.592 11.071-4.56 14.415-7.569a13.353 13.353 0 0 1 8.924-3.46h53.233a21.342 21.342 0 0 1 11.389 3.148c2.5 1.574 6.479 3.148 12.4 3.148 10.361 0 16.264-4.7 17.578-11.6a14.835 14.835 0 0 0 -.322-6.6c-1.244-4.635-5.029-12.207-16.48-12.207 0 0-6.95-.347-11.991 3.969a21.829 21.829 0 0 1 -14.209 5.155h-47.736a11.342 11.342 0 0 1 -9.7-5.448 29.5 29.5 0 0 0 -4.078-5.325 4.4 4.4 0 0 0 -7.494 3.06 11.714 11.714 0 0 1 -3.085 7.97z"/><path d="m240.11 249.208a9.61 9.61 0 0 1 9.616 9.67 463.455 463.455 0 0 0 5.461 72.872h-22.339s-5.9-37.815-2.31-73.907a9.61 9.61 0 0 1 9.572-8.635z"/><path d="m277.023 264.171c4.994.974 13 1.684 20.967-1.183a5.633 5.633 0 0 1 7.423 4.2 5.657 5.657 0 0 1 -2.623 5.942 32.078 32.078 0 0 1 -28.705 2.606 5.511 5.511 0 0 1 -3.282-3.5 12.529 12.529 0 0 1 -.4-1.747 5.616 5.616 0 0 1 6.62-6.318z"/><path d="m277.023 297.392c4.994.973 13 1.683 20.967-1.183a5.632 5.632 0 0 1 7.423 4.2 5.658 5.658 0 0 1 -2.623 5.943 32.081 32.081 0 0 1 -28.705 2.606 5.515 5.515 0 0 1 -3.282-3.5 12.5 12.5 0 0 1 -.4-1.747 5.615 5.615 0 0 1 6.62-6.319z"/><path d="m203.3 300.88c-4.993.973-13 1.683-20.966-1.183a5.632 5.632 0 0 0 -7.423 4.2 5.657 5.657 0 0 0 2.623 5.943 32.08 32.08 0 0 0 28.7 2.606 5.515 5.515 0 0 0 3.282-3.5 12.5 12.5 0 0 0 .4-1.747 5.615 5.615 0 0 0 -6.616-6.319z"/></g><circle cx="158.171" cy="175.909" fill="#8b9ac9" r="3.577"/><path d="m94.928 144.527a3.5 3.5 0 0 1 -2.506-5.943 137.954 137.954 0 0 1 24.389-19.246 3.5 3.5 0 0 1 5.229 2.2l2.343 10.15 23.617-6.416a3.5 3.5 0 0 1 1.836 6.755l-27.128 7.373a3.5 3.5 0 0 1 -4.328-2.591l-2.044-8.854a135.516 135.516 0 0 0 -18.9 15.515 3.489 3.489 0 0 1 -2.508 1.057z" fill="#8b9ac9"/><path d="m141.083 176.968a3.537 3.537 0 0 1 -.468-.031l-18.185-2.427a3.5 3.5 0 0 1 -2.987-4.065l1.549-8.955a135.523 135.523 0 0 0 -23.439 6.975 3.5 3.5 0 0 1 -2.725-6.448 138 138 0 0 1 29.943-8.286 3.5 3.5 0 0 1 3.966 4.058l-1.775 10.264 14.579 1.947a3.5 3.5 0 0 1 -.458 6.97z" fill="#8b9ac9"/><path d="m252.55 141.682a31.981 31.981 0 0 0 -5.684-5.04 29.093 29.093 0 0 0 -26.84-3.411 28.182 28.182 0 0 0 -17.563 19.915 52.451 52.451 0 0 0 -.731 19.041 3.5 3.5 0 0 0 3.47 3.063c.068 0 .138 0 .207-.006l21.31-1.244 32.538-1.9a3.5 3.5 0 0 0 3.3-3.5c0-.639-.125-15.732-9.937-26.834-.029-.022-.045-.056-.07-.084zm-43.292 13.143a21.277 21.277 0 0 1 13.242-15.047 21.662 21.662 0 0 1 18.02 1.18c-8.048 1.561-13.9 6.264-16.555 13.633a28.858 28.858 0 0 0 -1.483 12.645l-14.131.825a42.553 42.553 0 0 1 .907-13.236zm20.211 12a22.034 22.034 0 0 1 1.084-9.864c2.766-7.678 9.772-9.6 16.088-9.6.529 0 1.053.014 1.571.038 4.9 6.126 6.528 13.679 7.07 17.918z" fill="#464965"/><path d="m151.061 300.746-104.293-3.6a33.275 33.275 0 0 1 -32.084-30.662c-5.879-75.484-.152-166.416 2.583-202.006a8.782 8.782 0 0 1 8.719-8.069h36.994a8.777 8.777 0 0 1 8.72 8.108l1.16 15.894a3.5 3.5 0 0 0 1.868 2.847l4.973 2.6a12.034 12.034 0 0 1 6.499 10.165c.643 17.5-4.524 25.316-7.662 28.414a18.975 18.975 0 0 0 -5.659 12.985c-.808 26.789 2.032 58.534 3.8 75.073a16.99 16.99 0 0 0 15.346 15.1c51.486 4.565 114.333 2.109 115.858 1.557h.016l57.714-25.9-.13 8.749a15.909 15.909 0 0 0 9.3 14.707l27.787 12.691a39.81 39.81 0 0 1 23.031 32.345c2.717 28.5 2.252 59.644 2.246 59.955v.056h7c.017-1.21.435-32.209-2.279-60.675a46.826 46.826 0 0 0 -27.09-38.048l-27.787-12.691a8.908 8.908 0 0 1 -5.206-8.235l.3-20.058h17.364a3.5 3.5 0 0 0 3.5-3.352c1.952-46.227.895-102 .35-123.829a17.709 17.709 0 0 0 -15.392-17.05c-76.749-9.546-116.416-38.579-116.807-38.871a3.5 3.5 0 0 0 -5.547 2.228c-3.623 21.7 3.827 35.839 9.32 42.951l-12.2 1.356a3.5 3.5 0 0 0 -2.992 4.391c3.8 14.071 18.258 20.975 24.126 23.243.6 41.4 5.876 105.067 5.93 105.718a3.5 3.5 0 0 0 3.488 3.21h21.992l-2.671 30.528c-13.145.472-66.073 2-110.6-1.952a9.974 9.974 0 0 1 -9-8.867c-1.746-16.361-4.556-47.746-3.762-74.119a12.013 12.013 0 0 1 3.581-8.215c4.832-4.771 10.443-14.483 9.74-33.652a19.053 19.053 0 0 0 -10.258-16.111l-3.246-1.7-1.016-13.946a15.806 15.806 0 0 0 -15.705-14.6h-36.994a15.815 15.815 0 0 0 -15.7 14.532c-2.748 35.752-8.5 127.111-2.583 203.09a40.27 40.27 0 0 0 38.822 37.115l100.913 3.479v24.125h7v-27.506a3.5 3.5 0 0 0 -3.377-3.498zm114.66-105.223-55.254 24.794 2.473-28.274h52.833zm-78.571-10.48c-1.1-13.761-5.311-68.618-5.676-104.451a3.508 3.508 0 0 0 -2.5-3.317c-.163-.05-14.705-4.549-20.318-15.339l14.6-1.623a3.5 3.5 0 0 0 1.8-6.207c-.632-.513-14.486-12.06-12.589-36.274 12.892 8.131 51.139 28.954 115.252 36.927a10.665 10.665 0 0 1 9.258 10.278c.53 21.235 1.547 74.677-.211 120.006z" fill="#464965"/></svg>