<svg viewBox="0 0 340 340" xmlns="http://www.w3.org/2000/svg" xmlns:xlink="http://www.w3.org/1999/xlink"><radialGradient id="a" cx="185.662" cy="263.172" gradientUnits="userSpaceOnUse" r="106.735"><stop offset="0" stop-color="#f9a0a0"/><stop offset="1" stop-color="#fcd0be"/></radialGradient><linearGradient id="b" gradientUnits="userSpaceOnUse" x1="147.061" x2="147.061" y1="82.082" y2="342.105"><stop offset="0" stop-color="#fcd0be"/><stop offset="1" stop-color="#efa69a"/></linearGradient><linearGradient id="c" x1="80.689" x2="157.407" xlink:href="#b" y1="253.376" y2="214.019"/><linearGradient id="d" gradientUnits="userSpaceOnUse" x1="194.439" x2="194.439" y1="236.905" y2="314.402"><stop offset="0" stop-color="#ff6185"/><stop offset="1" stop-color="#e2407a"/></linearGradient><linearGradient id="e" x1="94.308" x2="171.026" xlink:href="#b" y1="279.923" y2="240.566"/><path d="m215.286 205.271c-15.386-10.7-50.173-25.591-50.173-25.591v-29.074h-45.441v28.5s-34.787 15.461-50.172 26.165c0 0-30.773 64.819-43.483 124.729h232.753c-18.153-66.213-43.484-124.729-43.484-124.729z" fill="url(#a)"/><path d="m165.113 179.68v-29.074h-45.441v11.354z" fill="#464965"/><path d="m105.661 43.466c15.721-5.266 51.139-17.466 91.439-33.466 0 0-6.031 18.536-13.4 29.069l13.4.931s0 8.954-12.64 19.488v91.118h-87.435v-95.13a12.659 12.659 0 0 1 8.636-12.01z" fill="url(#b)"/><path d="m104.378 238.732 25.649-19.92 2.672 4.611a10.62 10.62 0 0 1 -.02 10.686l-1.544 2.641z" fill="url(#c)"/><path d="m158.485 134.677-32.107 1.329s-1.672-13.021 5.289-20.372c0 0 5.763-3.827 12.262-3.007 17.653 2.226 14.556 22.05 14.556 22.05z" fill="#fc6b98"/><path d="m145.435 110.744c20.166.665 15.734 23.933 15.734 23.933l-8.62.329c.279-3.162.471-13-7.335-16.974a23.706 23.706 0 0 0 -13.537-2.389c2.874-3.037 7.211-5.114 13.758-4.899z" fill="#464965"/><path d="m125.65 96.506a3 3 0 0 1 -1.587-5.548l2.852-1.773a76.862 76.862 0 0 0 -7.06-4.014 3 3 0 0 1 2.586-5.415 87.926 87.926 0 0 1 11.738 7.076 3 3 0 0 1 -.151 5l-6.8 4.226a2.989 2.989 0 0 1 -1.578.448z" fill="#cc6262"/><path d="m159.246 96.506a2.989 2.989 0 0 1 -1.581-.452l-6.8-4.226a3 3 0 0 1 -.151-5 87.97 87.97 0 0 1 11.739-7.076 3 3 0 0 1 2.586 5.415 76.862 76.862 0 0 0 -7.06 4.014l2.852 1.773a3 3 0 0 1 -1.587 5.548z" fill="#cc6262"/><path d="m156.483 270.853s2.07 18.475-20.787 20.744h-2.2a22.114 22.114 0 0 0 -20.134 12.97l-11.547 25.433h-44.7l53.936-47.418 36.561-3.5z" fill="#cc6262"/><path d="m220.728 262.923q-.078-.69-.208-1.369c-2.049-10.79-16.738-14.579-24.413-6.281a13.5 13.5 0 0 0 -1.668 2.175 13.568 13.568 0 0 0 -1.669-2.175c-7.675-8.3-22.364-4.509-24.413 6.281q-.129.678-.208 1.369c-1.067 9.456 6.806 15.056 6.806 15.056 10.809 5.848 19.484 17.419 19.484 17.419s8.674-11.571 19.483-17.419c0 0 7.878-5.6 6.806-15.056z" fill="url(#d)"/><path d="m26.015 330s43.281-66.889 78.363-91.268l48.165-3.568s1.12 16.137.443 35.567a9.686 9.686 0 0 1 -9.312 9.356l-25.144.924a14.45 14.45 0 0 0 -10.659 5.287c-4.746 5.805-12.879 16.181-21.282 28.846a33.259 33.259 0 0 1 -27.713 14.856z" fill="url(#e)"/><g fill="#8b9ac9"><circle cx="260.84" cy="104.028" r="3.5"/><path d="m224.731 176.487a3.5 3.5 0 0 1 -2.861-5.513l8.022-11.416a10.667 10.667 0 0 0 1.581-8.9l-.949-3.551a17.64 17.64 0 0 1 .747-11.342 88.787 88.787 0 0 1 13.61-21.908 3.5 3.5 0 0 1 5.248 4.632 83.083 83.083 0 0 0 -12.407 19.992 10.608 10.608 0 0 0 -.435 6.82l.948 3.552a17.643 17.643 0 0 1 -2.616 14.732l-8.019 11.415a3.494 3.494 0 0 1 -2.869 1.487z"/><path d="m246.488 195.209a3.5 3.5 0 0 1 -2.3-6.138l10.518-9.168a10.662 10.662 0 0 0 3.663-8.266l-.073-3.675a17.64 17.64 0 0 1 3.437-10.835 88.754 88.754 0 0 1 18.452-18.02 3.5 3.5 0 0 1 3.989 5.753 83.058 83.058 0 0 0 -16.826 16.446 10.6 10.6 0 0 0 -2.052 6.519l.072 3.674a17.645 17.645 0 0 1 -6.068 13.681l-10.518 9.168a3.485 3.485 0 0 1 -2.294.861z"/><path d="m264.422 218.715a3.5 3.5 0 0 1 -1.351-6.731l12.875-5.379a10.659 10.659 0 0 0 6.085-6.687l1.092-3.509a17.64 17.64 0 0 1 6.681-9.2 88.753 88.753 0 0 1 23.196-11.271 3.5 3.5 0 0 1 1.967 6.718 83.059 83.059 0 0 0 -21.155 10.294 10.605 10.605 0 0 0 -4.006 5.538l-1.09 3.512a17.647 17.647 0 0 1 -10.071 11.067l-12.874 5.379a3.5 3.5 0 0 1 -1.349.269z"/></g><path d="m126.377 139.506h.147l34.778-1.329a3.5 3.5 0 0 0 3.305-2.843c.1-.531 2.405-13.121-4.179-21.35-3.405-4.255-8.41-6.522-14.877-6.734-6.789-.226-12.232 1.729-16.194 5.78-.077.068-.16.125-.232.2-8.009 8.459-6.3 22.626-6.218 23.225a3.5 3.5 0 0 0 3.47 3.051zm28.57-21.171c3.055 3.8 3.278 9.476 3.085 12.857l-1.935.08c-.268-5.065-1.978-12.637-9.3-16.36q-.7-.354-1.407-.667c4.346.155 7.471 1.496 9.557 4.09zm-5.838 13.227-19.394.8c.024-3.556.6-9.325 3.671-13.346a19.965 19.965 0 0 1 10.241 2.132c4.244 2.162 5.3 6.98 5.482 10.414z" fill="#464965"/><path d="m215.95 280.831c.39-.278 9.54-6.925 8.256-18.3q-.093-.82-.247-1.629a16.84 16.84 0 0 0 -12.166-12.902 17.989 17.989 0 0 0 -17.354 3.99 18 18 0 0 0 -17.355-3.99 16.837 16.837 0 0 0 -12.165 12.9q-.155.808-.248 1.629c-1.284 11.376 7.866 18.023 8.256 18.3a3.386 3.386 0 0 0 .363.226c9.981 5.4 18.267 16.333 18.348 16.44a3.5 3.5 0 0 0 2.8 1.4 3.5 3.5 0 0 0 2.8-1.4c.082-.109 8.368-11.042 18.349-16.442a3.386 3.386 0 0 0 .363-.222zm-3.926-5.8c-7.6 4.176-14.076 10.835-17.585 14.861-3.509-4.026-9.982-10.682-17.582-14.859-.949-.743-6.014-5.032-5.229-11.715a10.6 10.6 0 0 1 7.386-8.584c3.244-.93 10.382-1.594 12.425 4.521a3.039 3.039 0 0 0 3 1.7c1.228 0 2.685-.509 3-1.7 1.357-5.121 9.183-5.451 12.424-4.521 3.84 1.1 7.463 4.718 7.387 8.584.757 6.706-4.316 10.998-5.226 11.709z" fill="#464965"/><path d="m218.5 203.881a3.493 3.493 0 0 0 -1.214-1.483c-13.468-9.369-40.795-21.573-48.672-25.016v-23.276h15.844a3.5 3.5 0 0 0 3.5-3.5v-89.506c12.275-10.8 12.642-20.051 12.642-21.1a3.5 3.5 0 0 0 -3.258-3.492l-7.6-.528c6.028-10.686 10.47-24.233 10.686-24.9a3.5 3.5 0 0 0 -4.619-4.336c-39.552 15.7-74.153 27.667-91.258 33.4a16.149 16.149 0 0 0 -11.026 15.332v95.13a3.5 3.5 0 0 0 3.5 3.5h19.147v22.741c-7.815 3.538-35.2 16.176-48.672 25.551a3.489 3.489 0 0 0 -1.163 1.372c-.31.652-31.1 65.881-43.746 125.5a3.5 3.5 0 0 0 3.424 4.227h32.861a36.667 36.667 0 0 0 30.629-16.421c8.105-12.214 15.935-22.276 21.076-28.565a10.946 10.946 0 0 1 8.078-4l25.144-.925a13.232 13.232 0 0 0 12.68-12.731c.677-19.388-.438-35.768-.449-35.931a3.5 3.5 0 0 0 -3.75-3.248l-15.257 1.13a14.148 14.148 0 0 0 -1.3-11.136l-2.673-4.61a3.5 3.5 0 0 0 -5.175-1.01l-25.609 19.889c-12.6 8.783-27.51 23.731-44.32 44.439a3.5 3.5 0 0 0 5.434 4.412c16.094-19.826 30.291-34.164 42.215-42.637l43.648-3.233c.091 1.846.2 4.36.284 7.367l-22.475 1.07a3.5 3.5 0 0 0 .163 7h.17l22.283-1.061c.026 2.235.036 4.612.02 7.1l-22.148.968a3.5 3.5 0 0 0 .15 7h.156l21.731-.95c-.027 1.06-.057 2.126-.095 3.207a6.207 6.207 0 0 1 -5.941 5.98l-25.144.925a17.953 17.953 0 0 0 -13.241 6.569c-5.242 6.413-13.225 16.671-21.489 29.126a29.684 29.684 0 0 1 -24.8 13.291h-28.508c12.161-53.948 38.364-111.273 41.9-118.883 15.309-10.371 48.489-25.157 48.828-25.307a3.5 3.5 0 0 0 2.079-3.2v-12.03s74.154 30.279 89.3 40.5c3.265 7.681 26.038 62.045 42.67 122.417h7.117a3.457 3.457 0 0 0 -.11-.925c-18.012-65.701-43.394-124.616-43.647-125.203zm-88.842 28.462-.615 1.052-13.36.99 13.326-10.35.663 1.143a7.133 7.133 0 0 1 -.015 7.165zm31.956-57.785-38.441-14.99v-5.462h38.441zm3.5-27.453h-64.589v-91.629a9.156 9.156 0 0 1 6.248-8.692c16.124-5.405 47.733-16.324 84.4-30.685-2.384 6.174-6.172 15-10.346 20.963a3.5 3.5 0 0 0 2.625 5.5l9.328.647c-1.154 3.088-3.925 8.06-10.562 13.591a3.5 3.5 0 0 0 -1.259 2.689v87.618h-15.846z" fill="#464965"/></svg>