<svg viewBox="0 0 340 340" xmlns="http://www.w3.org/2000/svg" xmlns:xlink="http://www.w3.org/1999/xlink"><radialGradient id="a" cx="131.378" cy="159.982" gradientUnits="userSpaceOnUse" r="101.625"><stop offset="0" stop-color="#f97d7d"/><stop offset="1" stop-color="#fcd0be"/></radialGradient><path d="m147.762 127.924s17.609 38.654-23.064 51.94l43.854 17.97 9.824-18.506s.457-42.951-30.614-51.404z" fill="#464965"/><path d="m122.7 183.349s3.523-10.559 20.2-13.264c18.188-2.951 26.83 6.632 26.83 6.632-.157 9.623-2.213 18.38-6.934 25.926z" fill="#fc6b98"/><path d="m319.189 317.683a41.576 41.576 0 0 0 -16.315-17.346c-25.206-14.621-49.943-28.93-76.424-40.308l-1.631-39.508c19.212-32.562 36.81-77.569 45.457-101.1a19.475 19.475 0 0 0 -8.321-23.431c-51.176-30.59-94.189-82.516-94.189-82.516-17.484 35.428-2.395 61.654-2.395 61.654-12.517-5.061-19.23 0-19.23 0 5.981 6.441 8.742 17.944 8.742 17.944a297.1 297.1 0 0 0 -17.207 29.928c9.921 5.421 39.065 25.426 25.879 67.979l-48.09-16.268c-4.906 13.4-7.559 22.281-7.559 22.281l46.056 17.549-4.141 44.17c-27.58 9.716-56.015 26.691-71.343 36.527a41.5 41.5 0 0 0 -16.239 19.862l-5.819 14.926h268.951z" fill="url(#a)"/><path d="m183.256 225.7-29.294-11.16-2.753 29.367 31.182-6.755a5.989 5.989 0 0 0 .865-11.452z" fill="#464965"/><g fill="#cad4ef"><path d="m26.911 127.981c-2.588-5.3-11.484-5.707-14.507-.564a8.716 8.716 0 0 0 -1.26 4.259 7.812 7.812 0 0 0 2.589 5.617c4.385 4.431 12.993 2.617 14.069-3.054a9.8 9.8 0 0 0 -.891-6.258z"/><path d="m113.865 147.933c-2.013-4.126-8.932-4.438-11.282-.438a6.781 6.781 0 0 0 -.981 3.313 6.077 6.077 0 0 0 2.014 4.368c3.41 3.446 10.106 2.035 10.942-2.376a7.621 7.621 0 0 0 -.693-4.867z"/><path d="m118.605 85.714c-2.013-4.126-8.931-4.438-11.282-.438a6.769 6.769 0 0 0 -.98 3.313 6.071 6.071 0 0 0 2.014 4.368c3.41 3.446 10.105 2.035 10.942-2.376a7.622 7.622 0 0 0 -.694-4.867z"/><circle cx="33.322" cy="82.441" r="4.535"/><circle cx="80.55" cy="195.714" r="4.535"/></g><path d="m109.887 127.274a3.5 3.5 0 0 1 -3.224-2.136c-2.635-6.219-11.125-8.531-12.108-8.779-16.389-2.594-19.731-17.715-19.211-25.577-.461-8.782-7.321-11.007-8.107-11.234a3.5 3.5 0 0 1 1.844-6.748 19 19 0 0 1 13.266 17.879 3.572 3.572 0 0 1 -.007.414c-.045.649-.965 16.171 13.425 18.369.079.012.158.028.236.044.525.119 12.91 2.991 17.107 12.9a3.5 3.5 0 0 1 -3.221 4.866z" fill="#8b9ac9"/><path d="m45.828 168.314c-9.279 0-13.893-3-16.13-5.518a3.5 3.5 0 1 1 5.232-4.65c1.052 1.184 3.866 3.168 10.9 3.168a22.818 22.818 0 0 0 13.113-3.656 18 18 0 0 1 18.674-1.307 22.212 22.212 0 0 1 5.439 4.081 3.5 3.5 0 0 1 -5.007 4.893 15.229 15.229 0 0 0 -3.729-2.8 11.029 11.029 0 0 0 -11.425.91 29.759 29.759 0 0 1 -17.067 4.879z" fill="#8b9ac9"/><path d="m85.09 138.52a3.5 3.5 0 0 1 -2.944-1.6l-.138-.213a19.854 19.854 0 0 0 -16.479-8.854h-.259c-9.082 0-15.984-2.622-20.521-7.8-6.752-7.7-5.428-18.09-5.368-18.528a3.5 3.5 0 0 1 6.937.93c-.014.108-.916 7.769 3.732 13.027 3.151 3.563 8.272 5.369 15.221 5.369h.263a26.564 26.564 0 0 1 22.332 12.023l.161.247a3.5 3.5 0 0 1 -2.937 5.4z" fill="#8b9ac9"/><path d="m322.318 316.115a44.957 44.957 0 0 0 -17.688-18.806c-23.89-13.858-48.574-28.177-74.774-39.618l-1.5-36.285c19.1-32.636 36.49-77.065 45.2-100.775a23 23 0 0 0 -9.809-27.641c-50.049-29.92-92.864-81.234-93.29-81.749a3.5 3.5 0 0 0 -5.834.684c-12.863 26.075-8.923 47.318-5.338 57.836-9.585-1.571-14.977 2.365-15.251 2.572a3.5 3.5 0 0 0 -.458 5.176c4.114 4.432 6.606 11.865 7.514 14.96a304.711 304.711 0 0 0 -16.538 28.951 3.5 3.5 0 0 0 1.448 4.651 60.1 60.1 0 0 1 9.842 6.735v.023c2.558 8.068 5.174 23.189-5.8 34.242a32.247 32.247 0 0 0 -14.936 7.207l-8.526-2.884a3.5 3.5 0 0 0 -4.409 2.112c-4.884 13.351-7.515 22.116-7.625 22.483a3.5 3.5 0 0 0 2.108 4.272l43.569 16.6-3.684 39.305c-27.491 10.029-55.5 26.845-69.957 36.124a44.717 44.717 0 0 0 -17.609 21.535l-5.82 14.928a3.484 3.484 0 0 0 -.232 1.271h7.249l5.33-13.654a37.764 37.764 0 0 1 14.868-18.188c14.572-9.351 43.125-26.486 70.616-36.171a3.5 3.5 0 0 0 2.321-2.974l1.149-12.251 28.678-6.213a9.49 9.49 0 0 0 1.369-18.142l-29.293-11.162-42.982-16.377c1.024-3.211 2.84-8.742 5.362-15.769l44.845 15.171a3.5 3.5 0 0 0 4.464-2.28c12.847-41.458-12.55-62.857-24.6-70.364a286.981 286.981 0 0 1 15.5-26.644 3.5 3.5 0 0 0 .487-2.751 56.851 56.851 0 0 0 -6.574-15.6c2.647-.517 6.769-.54 12.347 1.716a3.5 3.5 0 0 0 4.346-4.991c-.135-.234-12.635-22.61.277-53.483 11.476 13.056 48.85 53.616 91.477 79.1a15.993 15.993 0 0 1 6.831 19.219c-8.711 23.705-26.164 68.286-45.187 100.526a3.514 3.514 0 0 0 -.482 1.923l1.632 39.508a3.5 3.5 0 0 0 2.115 3.072c26.568 11.415 51.724 26.007 76.05 40.118a37.969 37.969 0 0 1 14.941 15.886l5.4 10.776h7.4a3.461 3.461 0 0 0 -.356-1.566zm-165.3-96.666 24.992 9.523a2.489 2.489 0 0 1 -.359 4.759l-26.51 5.743zm4.185-32.962-27.986-9.467a29.661 29.661 0 0 1 10.246-3.48c9.208-1.493 15.635.473 19.646 2.652a69.1 69.1 0 0 1 -1.909 10.295zm-6.337-43.919a46.437 46.437 0 0 1 8.544 26.032 35.818 35.818 0 0 0 -13.652-2.569c4.868-7.809 5.691-16.376 5.107-23.463z" fill="#464965"/></svg>