<svg viewBox="0 0 340 340" xmlns="http://www.w3.org/2000/svg" xmlns:xlink="http://www.w3.org/1999/xlink"><radialGradient id="a" cx="270.652" cy="168.313" gradientUnits="userSpaceOnUse" r="79.814"><stop offset="0" stop-color="#f97d7d"/><stop offset="1" stop-color="#fcd0be"/></radialGradient><path d="m256.061 162.431a50.526 50.526 0 0 0 -12.785-13.409 11.661 11.661 0 0 0 -12.15-.816q-.627.327-1.247.665a57.4 57.4 0 0 0 -15.658 12.578c2-26.726 4.061-49.089 5.523-63.877a20.66 20.66 0 0 0 -16.984-22.388c-113.625-19.884-189.645-63.434-189.645-63.434s-5.151 33.421 28.334 60.467l-20.177 4.723s3.435 15.025 23.612 25.329c0 0-3.435 83.285 11.162 167.858l42.072 2.147-1.288 59.476h111.19c-.429-29.186.213-59.59 1.416-88.789a38.288 38.288 0 0 0 14.184 1.126 20.85 20.85 0 0 0 18.055-15.1c6.352-22.272 13.156-46.9 15.941-57.024a11.663 11.663 0 0 0 -1.555-9.532z" fill="url(#a)"/><path d="m156.909 275.273-58.791-3-.942 43.5 61.755-30.829a5.109 5.109 0 0 0 -2.022-9.671z" fill="#464965"/><path d="m141.824 235.82a3.5 3.5 0 0 1 -3.291-2.309c-.243-.651-6.332-16.31-27.2-16.31-21.2 0-29.029 13.774-29.352 14.36a3.5 3.5 0 0 1 -6.159-3.325c.394-.736 9.966-18.035 35.511-18.035 25.9 0 33.471 20.071 33.781 20.925a3.5 3.5 0 0 1 -3.292 4.694z" fill="#cc6262"/><path d="m243.648 173.263a10.984 10.984 0 0 0 -.814-1.849 10.492 10.492 0 0 0 -7.316-5.2 11.133 11.133 0 0 0 -9.2 2.434c-5.6 4.711-7.2 11.731-7.658 15.5a27.83 27.83 0 0 1 -.989 4.954c-3 9.715-8.907 8.463-10.081 8.1a3.5 3.5 0 0 0 -2.206 6.643 12.924 12.924 0 0 0 3.935.573h.119a20.4 20.4 0 0 0 -.693 10.007c1.05 5.212 4.377 9.48 9.889 12.686a3.5 3.5 0 0 0 3.52-6.051c-3.746-2.179-5.886-4.791-6.54-7.986a13.659 13.659 0 0 1 .611-6.939 6.917 6.917 0 0 0 .832.826 9.893 9.893 0 0 0 13.594-1.1c2.221-2.523 3.925-6.795 3.239-14.03 0 0-.986-7.931-8.269-6.926.282-2.257 1.345-7.65 5.2-10.9a4.2 4.2 0 0 1 3.429-.907 3.5 3.5 0 0 1 2.464 1.72 4.024 4.024 0 0 1 .291.658 3.5 3.5 0 0 0 6.641-2.211z" fill="#cc6262"/><g fill="#8b9ac9"><circle cx="322.398" cy="102" r="3.5"/><path d="m240.691 129.84a3.5 3.5 0 0 1 -2.626-5.813c.477-.543 11.858-13.392 24.982-21.409a13.211 13.211 0 0 1 17.63 3.476l.822 1.12a6.3 6.3 0 0 0 7.878 1.9 105.62 105.62 0 0 1 16.207-6.428 3.5 3.5 0 1 1 2.028 6.7 98.5 98.5 0 0 0 -15.13 6 13.28 13.28 0 0 1 -16.622-4.026l-.823-1.119a6.327 6.327 0 0 0 -8.341-1.649c-12.229 7.47-23.267 19.935-23.377 20.06a3.492 3.492 0 0 1 -2.628 1.188z"/><path d="m327.194 164.187a3.514 3.514 0 0 1 -1.041-.159 101.709 101.709 0 0 0 -18.247-3.745 12.074 12.074 0 0 1 -10.752-11.607 5.125 5.125 0 0 0 -4.762-4.949 92.391 92.391 0 0 0 -18.472.91 3.5 3.5 0 0 1 -.957-6.935 99.515 99.515 0 0 1 19.894-.959 12.107 12.107 0 0 1 11.291 11.663 5.115 5.115 0 0 0 4.549 4.922 108.908 108.908 0 0 1 19.536 4.016 3.5 3.5 0 0 1 -1.039 6.843z"/><path d="m323.688 212.731a3.479 3.479 0 0 1 -2-.632 101.719 101.719 0 0 0 -16.252-9.1 12.076 12.076 0 0 1 -6.723-14.322 5.121 5.121 0 0 0 -3.035-6.16 92.489 92.489 0 0 0 -17.878-4.738 3.5 3.5 0 0 1 1.193-6.9 99.467 99.467 0 0 1 19.246 5.121 12.1 12.1 0 0 1 7.218 14.54 5.116 5.116 0 0 0 2.842 6.069 108.815 108.815 0 0 1 17.4 9.754 3.5 3.5 0 0 1 -2.008 6.369z"/></g><path d="m245.306 146.171a15.118 15.118 0 0 0 -15.8-1.066 92.506 92.506 0 0 0 -11.045 6.85c1.789-22.84 3.556-41.778 4.77-54.038a24.262 24.262 0 0 0 -19.865-26.18c-111.648-19.537-187.755-62.592-188.511-63.024a3.5 3.5 0 0 0 -5.2 2.5c-.209 1.372-4.555 32.139 24.333 59.156l-13.514 3.163a3.5 3.5 0 0 0 -2.614 4.187c.15.658 3.8 15.744 23.454 26.615-.405 13.818-1.9 90.03 11.283 166.388a3.5 3.5 0 0 0 3.27 2.9l38.677 1.978-1.214 56.074c0 .026.006.05.006.076h6.994l.3-13.786 59.865-29.885a8.609 8.609 0 0 0 -3.406-16.3l-58.792-3-39.27-2c-13.827-82.279-10.68-163.546-10.646-164.366a3.5 3.5 0 0 0 -1.905-3.261c-12.953-6.614-18.421-15.112-20.558-19.7l16.329-3.822a3.5 3.5 0 0 0 1.4-6.13c-24.14-19.5-27.277-42.076-27.347-52.055 18.7 9.809 89.133 44.257 185.859 61.187a17.229 17.229 0 0 1 14.1 18.6c-1.327 13.423-3.319 34.817-5.277 60.585a96.99 96.99 0 0 0 -7.617 7.163 3.5 3.5 0 0 0 5.136 4.758c.1-.113 10.556-11.289 24.237-18.422a8.144 8.144 0 0 1 8.516.568 47.276 47.276 0 0 1 11.883 12.479 8.178 8.178 0 0 1 1.1 6.683c-2.663 9.676-9.546 34.6-15.931 56.985a17.44 17.44 0 0 1 -15.006 12.569c-14.746 1.365-24.3-4.413-28.441-17.157a3.5 3.5 0 1 0 -6.658 2.162c3.174 9.775 9.243 16.477 17.636 19.789-1.251 31.343-1.694 60.392-1.315 86.354h7c0-.018.005-.034.005-.052-.373-25.409.048-53.807 1.247-84.436a40.991 40.991 0 0 0 6.566.529q2.241 0 4.607-.218a24.488 24.488 0 0 0 21.1-17.626c6.393-22.415 13.283-47.362 15.948-57.047a15.178 15.178 0 0 0 -2.014-12.407 54.564 54.564 0 0 0 -13.675-14.32zm-143.768 129.782 55.193 2.816a1.609 1.609 0 0 1 .636 3.047l-56.567 28.239z" fill="#464965"/></svg>