<svg viewBox="0 0 340 340" xmlns="http://www.w3.org/2000/svg" xmlns:xlink="http://www.w3.org/1999/xlink"><radialGradient id="a" cx="171.905" cy="166.583" gradientUnits="userSpaceOnUse" r="62.167"><stop offset="0" stop-color="#f97d7d"/><stop offset="1" stop-color="#fcd0be"/></radialGradient><linearGradient id="b" gradientUnits="userSpaceOnUse" x1="165.774" x2="165.774" y1="140.018" y2="224.846"><stop offset="0" stop-color="#ff6185"/><stop offset="1" stop-color="#e2407a"/></linearGradient><linearGradient id="c" x1="206.766" x2="206.766" xlink:href="#b" y1="140.018" y2="224.846"/><path d="m220.1 331.75c-1.327-90.372 7.6-192.436 11.724-234.178a20.658 20.658 0 0 0 -16.984-22.388c-113.627-19.884-189.646-63.434-189.646-63.434s-5.152 33.421 28.334 60.467l-20.177 4.723s13.99 18.932 34.167 29.236c0 0-10.124 89.37.606 163.951l42.072 2.147-1.288 59.476z" fill="url(#a)"/><path d="m168.988 275.273-58.792-3-.942 43.5 61.755-30.829a5.109 5.109 0 0 0 -2.021-9.671z" fill="#464965"/><path d="m141.548 157.951s-5.63 21.307 23.8 27.015a7.5 7.5 0 0 1 6.093 6.457l.674 5.835a6.171 6.171 0 0 0 6.13 5.463 6.171 6.171 0 0 0 6.171-6.171v-7.986a17.722 17.722 0 0 1 2.44-8.95c2.122-3.627 4.636-10.168 3.11-19.413z" fill="url(#b)"/><path d="m141.548 157.951s5.864-17.387 25.423-17.458c21-.076 22.992 19.708 22.992 19.708s-3.5 16.634-25.251 14.75c-20.681-1.79-23.164-17-23.164-17z" fill="#fff"/><circle cx="206.766" cy="154.45" fill="url(#c)" r="3.5"/><circle cx="206.766" cy="174.45" fill="url(#c)" r="6.589"/><rect fill="#cc6262" height="9.27" rx="4.635" transform="matrix(0 1 -1 0 250.285 68.314)" width="14.564" x="83.704" y="154.665"/><rect fill="#cc6262" height="9.56" rx="4.78" transform="matrix(0 1 -1 0 326.785 -7.729)" width="15.021" x="159.747" y="154.748"/><path d="m153.9 235.82a3.5 3.5 0 0 1 -3.291-2.309c-.243-.651-6.333-16.31-27.2-16.31-21.2 0-29.029 13.774-29.352 14.36a3.5 3.5 0 0 1 -6.16-3.325c.4-.736 9.967-18.035 35.512-18.035 25.9 0 33.471 20.071 33.781 20.925a3.5 3.5 0 0 1 -3.291 4.694z" fill="#cc6262"/><g fill="#8b9ac9"><circle cx="315.114" cy="123.538" r="3.5"/><path d="m308.377 185.92a3.509 3.509 0 0 1 -1.308-.254 101.61 101.61 0 0 0 -17.883-5.219 12.074 12.074 0 0 1 -9.77-12.447 5.121 5.121 0 0 0 -4.343-5.319 92.452 92.452 0 0 0 -18.485-.6 3.5 3.5 0 0 1 -.388-6.99 99.467 99.467 0 0 1 19.906.664 12.107 12.107 0 0 1 10.3 12.544 5.115 5.115 0 0 0 4.133 5.276 108.8 108.8 0 0 1 19.145 5.593 3.5 3.5 0 0 1 -1.31 6.747z"/><path d="m297.541 232.283a3.484 3.484 0 0 1 -2.23-.8 101.683 101.683 0 0 0 -15.456-10.4 12.076 12.076 0 0 1 -5.534-14.822 5.123 5.123 0 0 0 -2.524-6.387 92.461 92.461 0 0 0 -17.432-6.178 3.5 3.5 0 1 1 1.751-6.778 99.39 99.39 0 0 1 18.766 6.673 12.106 12.106 0 0 1 6.011 15.078 5.115 5.115 0 0 0 2.337 6.281 108.759 108.759 0 0 1 16.546 11.139 3.5 3.5 0 0 1 -2.235 6.195z"/><path d="m298.3 122.852a105.655 105.655 0 0 0 -16.677 5.086 6.292 6.292 0 0 1 -7.7-2.534l-.729-1.182a13.324 13.324 0 0 0 -17.373-4.858c-1.3.656-2.579 1.356-3.841 2.085a3.5 3.5 0 0 0 -1.412 4.513 3.488 3.488 0 0 0 4.9 1.556c1.179-.682 2.373-1.333 3.575-1.939a6.3 6.3 0 0 1 8.192 2.317l.729 1.182a13.283 13.283 0 0 0 16.238 5.366 98.625 98.625 0 0 1 15.458-4.726 3.565 3.565 0 0 0 2.877-3.441 3.5 3.5 0 0 0 -4.237-3.425z"/></g><path d="m46.066 70.369-13.513 3.163a3.5 3.5 0 0 0 -2.017 5.488c.57.772 13.742 18.409 33.236 29.13-1.543 14.195-8.764 88.821.882 162.432a3.5 3.5 0 0 0 3.292 3.041l38.677 1.973-1.214 56.078c0 .026.006.05.006.076h6.994l.3-13.786 59.866-29.885a8.61 8.61 0 0 0 -3.407-16.3l-58.791-3-39.15-2c-9.941-79.533-.332-159.37-.233-160.177a3.5 3.5 0 0 0 -1.882-3.546c-13.5-6.9-24.262-17.978-29.49-23.991l14.706-3.442a3.5 3.5 0 0 0 1.4-6.13c-24.141-19.493-27.278-42.068-27.352-52.048 18.7 9.809 89.133 44.257 185.858 61.187a17.229 17.229 0 0 1 14.1 18.6c-.356 3.611-1.609 17.527-2.615 28.709-.449 4.995-.835 9.278-1.037 11.487a.066.066 0 0 1 0 .014v.014c-4.242 50.9-9.088 125.925-8.087 194.3h6.995c0-.018.005-.034.005-.052-1-68.1 3.832-142.895 8.061-193.654.2-2.216.588-6.492 1.036-11.479.953-10.579 2.256-25.068 2.61-28.648a24.258 24.258 0 0 0 -19.864-26.18c-111.638-19.543-187.749-62.598-188.505-63.03a3.5 3.5 0 0 0 -5.2 2.5c-.209 1.372-4.553 32.139 24.333 59.156zm67.551 205.584 55.193 2.816a1.609 1.609 0 0 1 .636 3.047l-56.567 28.239z" fill="#464965"/></svg>