<svg viewBox="0 0 340 340" xmlns="http://www.w3.org/2000/svg" xmlns:xlink="http://www.w3.org/1999/xlink"><radialGradient id="a" cx="132.149" cy="89.555" gradientUnits="userSpaceOnUse" r="76.647"><stop offset="0" stop-color="#f97d7d"/><stop offset="1" stop-color="#fcd0be"/></radialGradient><linearGradient id="b" gradientUnits="userSpaceOnUse" x1="123.794" x2="186.45" y1="87.708" y2="118.382"><stop offset="0" stop-color="#f3f8ff"/><stop offset="1" stop-color="#c9d4e5"/></linearGradient><linearGradient id="c" x1="107.448" x2="182.757" xlink:href="#b" y1="87.652" y2="124.521"/><linearGradient id="d" gradientUnits="userSpaceOnUse" x1="163.924" x2="183.419" y1="281.823" y2="78.343"><stop offset="0" stop-color="#fcd0be"/><stop offset="1" stop-color="#efa69a"/></linearGradient><path d="m88.393 74.753-4.741-9.68v-9.247a13.744 13.744 0 0 1 12.277-13.671c21.792-2.341 67.664-9.251 96.654-27.68 0 0 7.542 26.536-11.732 40.5l17.6.279s1.115 16.941-15.644 23l-5.867 3.666z" fill="url(#a)"/><path d="m90.907 101.905-7.255 20.389v64.806h99.153v-54.323s-49.719-32.827-91.898-30.872z" fill="url(#a)"/><path d="m126.066 111.735c13.536 3.66 37.054 12.476 56.739 21.042v-39.094z" fill="url(#b)"/><path d="m83.652 65.073s41.5 8.014 99.153 13.18v27.879s-54.189 3.315-99.153 16.162z" fill="url(#c)"/><path d="m107.549 187.1v36.913l-65.232 52.035a44.6 44.6 0 0 0 -15.917 26.118l-5.37 26.86h195.123v-18.941h61.582a24.011 24.011 0 0 0 20.329-36.793c-19.51-31.011-42.725-62.617-80.227-112.084a61.368 61.368 0 0 1 -11.931-28.991l-3.066-23.094a13.518 13.518 0 0 0 -13.4-11.739h-6.635v56.656a55.461 55.461 0 0 0 7.547 27.932l43.417 74.487-73.946-31.094v-38.265z" fill="url(#d)"/><path d="m107.549 187.1v17.289l52.274 20.976v-38.265z" fill="#464965"/><g fill="#8b9ac9"><circle cx="318.971" cy="78.253" r="3.5"/><path d="m233.77 64.422a3.5 3.5 0 0 1 -1.315-6.745l12.931-5.239a10.663 10.663 0 0 0 6.158-6.621l1.13-3.5a17.633 17.633 0 0 1 6.781-9.124 88.712 88.712 0 0 1 23.318-11.02 3.5 3.5 0 0 1 1.894 6.738 83.044 83.044 0 0 0 -21.267 10.066 10.6 10.6 0 0 0 -4.064 5.494l-1.131 3.5a17.649 17.649 0 0 1 -10.19 10.957l-12.931 5.239a3.5 3.5 0 0 1 -1.314.255z"/><path d="m252.878 92.588h-.008l-13.954-.01a3.5 3.5 0 0 1 0-7l13.954.01a10.663 10.663 0 0 0 8.19-3.819l2.362-2.817a17.638 17.638 0 0 1 9.715-5.9 88.712 88.712 0 0 1 25.75-1.442 3.5 3.5 0 1 1 -.779 6.957 82.981 82.981 0 0 0 -23.489 1.327 10.592 10.592 0 0 0 -5.833 3.561l-2.363 2.817a17.65 17.65 0 0 1 -13.545 6.316z"/><path d="m297.6 140.782a3.485 3.485 0 0 1 -2.195-.775 83.043 83.043 0 0 0 -20.526-11.5 10.608 10.608 0 0 0 -6.833-.129l-3.5 1.107a17.647 17.647 0 0 1 -14.837-1.956l-11.763-7.5a3.5 3.5 0 0 1 3.764-5.9l11.763 7.5a10.657 10.657 0 0 0 8.965 1.182l3.5-1.107a17.653 17.653 0 0 1 11.366.239 88.739 88.739 0 0 1 22.496 12.615 3.5 3.5 0 0 1 -2.2 6.224z"/></g><path d="m137.2 167.022a14.087 14.087 0 0 1 -6.936-1.817l-.345-.194a7.072 7.072 0 0 0 -5.932-.492l-5.679 2.074a3.5 3.5 0 1 1 -2.4-6.574l5.678-2.074a14.072 14.072 0 0 1 11.773.968l.346.195a7.129 7.129 0 0 0 7.044-.027 14.016 14.016 0 0 1 12.238-.892l2.27.9a3.5 3.5 0 0 1 -2.581 6.508l-2.27-.9a7.055 7.055 0 0 0 -6.16.449 14.1 14.1 0 0 1 -7.046 1.876z" fill="#cc6262"/><path d="m277.735 313.584a27.511 27.511 0 0 0 23.292-42.156c-19.637-31.21-42.482-62.316-80.4-112.334a57.942 57.942 0 0 1 -11.251-27.338l-3.066-23.095a17.07 17.07 0 0 0 -16.87-14.777h-3.135v-13.284c13.224-6.041 16.059-19.158 15.636-25.567a3.5 3.5 0 0 0 -3.437-3.271l-9.015-.143c12.642-15.557 6.754-37.063 6.46-38.1a3.5 3.5 0 0 0 -5.244-2c-28.928 18.39-76.178 25.116-95.15 27.154a17.217 17.217 0 0 0 -15.4 17.15v131.277a3.5 3.5 0 0 0 3.5 3.5h20.4v31.727l-63.921 50.985a48.159 48.159 0 0 0 -17.169 28.168l-5.365 26.859a3.585 3.585 0 0 0 -.067.687h7.067l5.233-26.173a41.149 41.149 0 0 1 14.667-24.069l65.232-52.035a3.5 3.5 0 0 0 1.317-2.736v-14.449l121.364 50.122a3.5 3.5 0 0 0 4.38-4.989l-43.417-74.487a52.027 52.027 0 0 1 -7.071-26.17v-53.156h3.135a10.049 10.049 0 0 1 9.931 8.7l3.065 23.094a64.977 64.977 0 0 0 12.612 30.645c37.8 49.857 60.555 80.841 80.054 111.834a20.51 20.51 0 0 1 -17.367 31.428h-61.582a3.5 3.5 0 0 0 -3.5 3.5v18.942h7v-15.443zm-190.583-244.311c11.684 2.084 46.879 8 92.153 12.176v6.651c-39.644-1.885-82.071 6.031-92.153 8.06zm0 34.027c6.233-1.3 50.867-10.223 92.153-8.2v7.77c-8.1.623-30.18 2.572-55.2 6.868a3.294 3.294 0 0 0 -.444.076c-11.916 2.056-24.478 4.642-36.509 7.874zm92.153 6.595v17.185c-11.486-5.471-25.261-9.875-37.065-13.086 16.88-2.376 30.733-3.605 37.065-4.094zm-92.153 73.705v-58.652c12.218-3.368 25.08-6.049 37.278-8.165 11.191 2.523 37.154 8.984 54.875 18.107v48.71zm69.171 36.589-45.274-18.168v-11.421h45.274zm31.006-36.453 38.142 65.437-62.148-26.134v-32.439h19.482a3.5 3.5 0 0 0 3.5-3.5v-5.2q.495.927 1.024 1.836zm-5.049-109.045c-47.943-4.331-84.9-10.68-95.128-12.53v-6.336a10.23 10.23 0 0 1 9.148-10.19c22.994-2.471 64.738-9.03 93.791-25.58 1.029 7.654 1.23 23.012-11.3 32.089a3.5 3.5 0 0 0 2 6.334l13.979.221a19.443 19.443 0 0 1 -12.49 15.992z" fill="#464965"/></svg>