<svg fill="none" height="14" viewBox="0 0 14 14" width="14" xmlns="http://www.w3.org/2000/svg"><g stroke="#4147d5" stroke-linejoin="round"><path d="m7.73529 2.07843c-1.5621-1.562101-4.09476-1.562102-5.65686 0-1.562094 1.56209-1.562094 4.09475 0 5.65685l4.24265 4.24262c1.56209 1.5621 4.09472 1.5621 5.65682 0s1.5621-4.09474 0-5.65683z" fill="#d7e0ff" stroke-width="1.5"/><path d="m6.96419 1.47527c.27486.16507.53415.36609.77112.60305l4.24259 4.24264c.2514.25139.4624.52791.6328.82148l-5.46813 5.46816c-.29357-.1705-.57009-.3814-.82148-.6328l-4.24264-4.24262c-.23696-.23697-.43798-.49626-.60305-.77112z" fill="#fff" stroke-width="1.5"/><circle r=".5" transform="matrix(.707107 -.707107 -.707107 -.707107 7.04822 9.16936)"/><circle r=".5" transform="matrix(.707107 -.707107 -.707107 -.707107 9.16956 7.04802)"/><circle r=".5" transform="matrix(.707107 -.707107 -.707107 -.707107 7.04822 4.92668)"/><circle r=".5" transform="matrix(.707107 -.707107 -.707107 -.707107 4.92688 7.04802)"/></g></svg>