<svg fill="none" height="48" viewBox="0 0 48 48" width="48" xmlns="http://www.w3.org/2000/svg"><path d="m0 0h48v48h-48z" fill="#fff" fill-opacity=".01"/><g stroke="#000" stroke-width="4"><path d="m23 42h-4-4-6c-1.10457 0-2-.8954-2-2v-32c0-1.10457.89543-2 2-2h28c1.1046 0 2 .89543 2 2v7 4.5" stroke-linecap="round" stroke-linejoin="round"/><path d="m36.6364 27c2.4099 0 4.3636 1.8804 4.3636 4.2 0 3.0196-2.9091 5.6-4.3636 7-.9697.9333-2.1819 1.8667-3.6364 2.8-1.4545-.9333-2.6667-1.8667-3.6364-2.8-1.4545-1.4-4.3636-3.9804-4.3636-7 0-2.3196 1.9537-4.2 4.3636-4.2 1.5178 0 2.8546.7459 3.6364 1.8775.7818-1.1316 2.1186-1.8775 3.6364-1.8775z" fill="#2f88ff" stroke-linejoin="round"/><path d="m15 14h16" stroke-linecap="round"/></g></svg>