<svg enable-background="new 0 0 128 128" viewBox="0 0 128 128" xmlns="http://www.w3.org/2000/svg" xmlns:xlink="http://www.w3.org/1999/xlink"><linearGradient id="a"><stop offset="0" stop-color="#1e88e5"/><stop offset="1" stop-color="#1565c0"/></linearGradient><linearGradient id="b" gradientUnits="userSpaceOnUse" x1="64" x2="64" xlink:href="#a" y1="4.8333" y2="124.48"/><clipPath id="c"><path d="m115.2 75.6-19.7-11.6 19.8-11.6c1.7-1 2.2-3.2 1.2-4.8l-12.8-21.2c-1-1.7-3.2-2.2-4.9-1.2l-18.7 10.8v-21.5c0-1.9-1.6-3.5-3.6-3.5h-25c-2 0-3.6 1.6-3.6 3.5v21.5l-18.7-11c-1.7-1-3.9-.5-4.9 1.2l-12.8 21.3c-1 1.7-.4 3.8 1.2 4.8l19.8 11.7-19.8 11.6c-1.7 1-2.2 3.2-1.2 4.8l12.8 21.2c1 1.7 3.2 2.2 4.9 1.2l18.7-11v21.5c0 1.9 1.6 3.5 3.6 3.5h25c2 0 3.6-1.6 3.6-3.5v-21.3l18.7 11c1.7 1 3.9.4 4.9-1.2l12.8-21.2c1-1.8.5-4-1.3-5z"/></clipPath><linearGradient id="d"><stop offset="0" stop-color="#e1f5fe"/><stop offset=".9949" stop-color="#81d4fa"/></linearGradient><linearGradient id="e" gradientUnits="userSpaceOnUse" x1="65.6152" x2="65.6152" xlink:href="#d" y1="1.2306" y2="141.15"/><linearGradient id="f" gradientUnits="userSpaceOnUse" x1="67.6381" x2="67.6381" xlink:href="#d" y1="3.2247" y2="138.77"/><linearGradient id="g" gradientUnits="userSpaceOnUse" x1="65.9696" x2="65.9696" xlink:href="#d" y1="5.639" y2="139.79"/><linearGradient id="h" gradientUnits="userSpaceOnUse" x1="70.776" x2="70.776" xlink:href="#d" y1="11.18" y2="139.34"/><linearGradient id="i" gradientUnits="userSpaceOnUse" x1="67.6155" x2="67.6155" xlink:href="#a" y1="4.8333" y2="124.48"/><linearGradient id="j" gradientUnits="userSpaceOnUse" x1="57.0914" x2="57.0914" xlink:href="#d" y1="1.3505" y2="137.18"/><linearGradient id="k" gradientUnits="userSpaceOnUse" x1="57.2311" x2="57.2311" xlink:href="#a" y1="4.8333" y2="124.48"/><path d="m115.2 75.6-19.7-11.6 19.8-11.6c1.7-1 2.2-3.2 1.2-4.8l-12.8-21.2c-1-1.7-3.2-2.2-4.9-1.2l-18.7 10.8v-21.5c0-1.9-1.6-3.5-3.6-3.5h-25c-2 0-3.6 1.6-3.6 3.5v21.5l-18.7-11c-1.7-1-3.9-.5-4.9 1.2l-12.8 21.3c-1 1.7-.4 3.8 1.2 4.8l19.8 11.7-19.8 11.6c-1.7 1-2.2 3.2-1.2 4.8l12.8 21.2c1 1.7 3.2 2.2 4.9 1.2l18.7-11v21.5c0 1.9 1.6 3.5 3.6 3.5h25c2 0 3.6-1.6 3.6-3.5v-21.3l18.7 11c1.7 1 3.9.4 4.9-1.2l12.8-21.2c1-1.8.5-4-1.3-5z" fill="url(#b)"/><g clip-path="url(#c)" opacity=".2"><path d="m76.5 14c.3 0 .6.2.6.5v21.5c0 1.1.6 2.1 1.5 2.6.5.3 1 .4 1.5.4s1.1-.1 1.5-.4l18.7-11c.1-.1.2-.1.3-.1s.3 0 .5.3l12.8 21.2c.1.1.1.2.1.4 0 .1-.1.2-.2.3l-19.9 11.7c-.9.5-1.5 1.5-1.5 2.6s.6 2.1 1.5 2.6l19.8 11.6c.2.1.2.2.2.3s0 .3-.1.4l-12.8 21.2c-.2.2-.4.3-.5.3s-.2 0-.3-.1l-18.7-11c-.5-.3-1-.4-1.5-.4s-1 .1-1.5.4c-.9.5-1.5 1.5-1.5 2.6v21.5c0 .3-.3.5-.6.5h-25c-.3 0-.6-.2-.6-.5v-21.4c0-1.1-.6-2.1-1.5-2.6-.5-.3-1-.4-1.5-.4s-1 .1-1.5.4l-18.7 11c-.1.1-.2.1-.3.1s-.4 0-.5-.3l-12.7-21.3c-.1-.1-.1-.2-.1-.3s.1-.2.2-.3l19.8-11.6c.9-.5 1.5-1.5 1.5-2.6s-.6-2-1.5-2.6l-19.7-11.7c-.2-.1-.2-.2-.2-.3s0-.3.1-.4l12.8-21.2c.1-.2.4-.3.5-.3s.2 0 .3.1l18.7 11c.5.3 1 .4 1.5.4s1-.1 1.5-.4c.9-.5 1.5-1.5 1.5-2.6v-21.6c0-.3.3-.5.6-.5zm0-3h-25c-2 0-3.6 1.6-3.6 3.5v21.5l-18.7-11c-.6-.3-1.2-.5-1.8-.5-1.2 0-2.4.6-3.1 1.7l-12.8 21.3c-1 1.7-.4 3.8 1.2 4.8l19.8 11.7-19.7 11.6c-1.7 1-2.2 3.2-1.2 4.8l12.8 21.2c.7 1.1 1.9 1.7 3.1 1.7.6 0 1.2-.2 1.8-.5l18.7-11v21.5c0 1.9 1.6 3.5 3.6 3.5h25c2 0 3.6-1.6 3.6-3.5v-21.3l18.7 11c.6.3 1.2.5 1.8.5 1.2 0 2.4-.6 3.1-1.7l12.8-21.2c1-1.7.4-3.8-1.2-4.8l-19.9-11.8 19.8-11.6c1.7-1 2.2-3.2 1.2-4.8l-12.8-21.2c-.7-1.1-1.9-1.7-3.1-1.7-.6 0-1.2.2-1.8.5l-18.7 10.8v-21.5c0-1.9-1.6-3.5-3.6-3.5z" fill="#424242"/></g><path d="m71.5 7.4c-1.5-1.5-3.6-2.4-5.8-2.4s-4.2.9-5.8 2.4c-1.5 1.6-2.3 3.7-2.3 5.8l3.5 105.3c.1 2.4 2.1 4.4 4.5 4.4 2.5 0 4.4-1.9 4.5-4.4l3.5-105.3c.2-2.1-.6-4.2-2.1-5.8z" fill="url(#e)"/><path d="m72.6 44.7s5.2 1.7 8.1 7.5c2 3.9 1.3 12.8-7.1 18-3.9 2.4-12.2 6.2-12.9 8.9-.5 2.1-.4 5.6-.4 5.6s-5.6-2.3-6.5-7c-.9-4.6 2.1-8.1 6-10.9 3.1-2.2 9.7-5.6 11.1-9.8 1.6-4.4 1.7-12.3 1.7-12.3z" fill="url(#f)"/><path d="m71.4 79.4s.6.3 1.4 1c4.7 4.1 4.7 11.5.1 15.7-1.4 1.2-3.1 2.7-4.9 4-4.6 3.3-7 3.3-6.7 12.3 0 0-3.9-2-5.3-6.4-.7-2.2-.4-4.3.3-6 1.1-2.6 3.2-4.7 5.7-6 2.2-1.1 5.5-3 6.8-4.9 2.5-3.4 2.5-8.5 2.6-9.7z" fill="url(#g)"/><path d="m70.8 104.6s4.1 2.2 3.4 7.2c-.5 3.7-3.6 5.3-5.9 5.8-.7.2-1.3-.7-.9-1.3 1.4-2.4 3.3-7 3.4-11.7z" fill="url(#h)"/><path d="m73.2 96.1c4.9-4.5 4.9-12.3-.1-16.6-.9-.7-1.5-1.1-1.5-1.1v.2l.2-7c.7-.4 1.4-.8 2-1.2 8.8-5.5 9.5-14.8 7.4-18.9-3-6-8.3-7.8-8.5-7.8l1-31.3c.1-2.2-.7-4.4-2.3-5.9-1.4-1.6-3.4-2.5-5.7-2.5s-4.3.9-5.9 2.5-2.4 3.7-2.3 5.9l1.8 54.6c-4 2.9-7 6.5-6.1 11.3s6.5 7.2 6.8 7.3l.3 9.1c-2 1.4-3.7 3.2-4.7 5.5-.8 1.9-1.1 4.1-.4 6.4 1.5 4.5 5.5 6.7 5.7 6.7l.2 6.1c.1 2.5 2.1 4.4 4.6 4.4s4.5-1.9 4.6-4.4l.1-2.1c2-.9 3.8-2.7 4.3-5.7.7-5.5-3.8-7.9-3.8-8l.1-5.6c.8-.6 1.6-1.3 2.2-1.9zm-11.9-88.2c1.2-1.3 2.7-1.9 4.4-1.9s3.3.7 4.4 1.9c1.2 1.2 1.8 2.8 1.7 4.5l-1.5 46c-1.9 3-6.1 5.5-9 7.4l-1.8-53.4c0-1.7.6-3.3 1.8-4.5zm-1.5 70.1.2 5.4c-1.4-.8-4.2-2.7-4.7-5.4-.6-3.3 1.1-6.2 5.3-9.3l1.8-1.2.6-.5c3.1-2 7-4.5 9-7.6.2-.3.3-.7.3-1l.4-12.6c1.3.6 4.7 2.4 6.8 6.6 1.6 3.1 1.2 11.3-6.7 16.3-.5.3-1.1.7-1.9 1.1-.4.2-1.7.9-2 1.1-3.1 1.7-6.5 3.6-8.6 5.5-.4.5-.6 1-.5 1.6zm10.1-5.3-.5 15.3c-.2.2-.3.5-.5.7-1.4 1.8-4.4 3.7-6.7 4.9l-.5-15.7c1.8-1.7 5.2-3.5 8.2-5.2zm-1.4 41.2c-.5 1.2-1 2.2-1.4 2.9s.1 1.5.8 1.5h.2s.2 0 .3-.1v1.3c-.1 1.4-1.2 2.5-2.6 2.5s-2.6-1.1-2.6-2.5l-.5-15c1.2-1.6 3-2.4 5.4-4.1.3-.2.7-.5 1-.7zm4.2-2.3c-.2 1.7-1.1 3-2.7 3.9.1-.2.2-.5.3-.8.1-.2.2-.5.2-.7l.3-7.7c.9.8 2.3 2.5 1.9 5.3zm-2.9-15.1c-.4.3-1.6 1.3-2 1.6l-.1.1c-.3.2-.5.4-.8.6-.7.5-1.3.9-1.9 1.3-1.5 1-2.9 1.9-3.9 3.2-.3.4-.4.8-.4 1.3l.2 6.4c-1.1-.8-2.9-2.5-3.7-4.9-.5-1.6-.4-3.3.3-5 .8-1.8 2.1-3.4 3.9-4.6.3-.2 1.5-.9 1.8-1 3.6-1.9 6.1-3.8 7.3-5.5.2-.3.4-.6.6-.8s.3-.6.3-1l.2-7.3c.1.1.2.1.2.2 1.9 1.7 3 4 3.1 6.6 0 2.7-1.1 5.2-3 7-.7.6-1.4 1.2-2.1 1.8z" fill="url(#i)"/><path d="m58.7 50.8s-11.5-3.8-12.6-18.5c-1-14.5 12.9-16.5 12.9-16.5s5-.6 8 2.6-.9 6.1-.9 6.1-1.7 1.6-7.3 2.2-4.2 8.9-.7 11.8c.1 0 .6 12.3.6 12.3z" fill="url(#j)"/><circle cx="62.1" cy="19.5" fill="#1565c0" r="1.7"/><path d="m67.6 18c-2.3-2.4-5.6-2.8-7.3-2.8-.7 0-1.1.1-1.1.1s-14.6 2.1-13.5 17.3c1.1 15.4 13.2 19.3 13.2 19.3l-.1-2.5s-1.4-.5-1.8-.7c-.1 0-.2-.1-.3-.2-3.3-2.1-8.3-6.8-9-16.1-.9-13.1 11.3-15 11.8-15.1h.8c1.4 0 4.1.3 5.8 2.1.7.8.7 1.3.7 1.5-.1.9-1 1.8-1.3 2-.1 0-.1 0-.1.1-.2.2-2 1.3-6.5 1.8-2.7.3-4.7 1.9-5.4 4.4-.9 3.2.4 7.3 3 9.9 0 0 1.3 1 2 1.3l-.1-2.2c-3.7-3-5.1-10.8.7-11.4s7.6-2.3 7.6-2.3 4.1-3.1.9-6.5z" fill="url(#k)"/><path d="m73.2 96.1c4.9-4.5 4.9-12.3-.1-16.6-.9-.7-1.5-1.1-1.5-1.1v.2l.2-7c.7-.4 1.4-.8 2-1.2 8.8-5.5 9.5-14.8 7.4-18.9-3-6-8.3-7.8-8.5-7.8l1-31.3c.1-2.2-.7-4.4-2.3-5.9-1.4-1.6-3.4-2.5-5.7-2.5s-4.3.9-5.9 2.5-2.4 3.7-2.3 5.9l.1 3.2c-3.8 1-12.8 4.8-11.9 16.9 1.1 14.9 12.5 19.1 13.2 19.3l-.1-2.5c-.2 0-1.4-.5-1.8-.7-.1 0-.2-.1-.3-.2-3.3-2.1-8.3-6.8-9-16.1-.7-10.2 6.5-13.7 10-14.7 1-.3 1.7-.4 1.8-.4h.2.6c1.4 0 4.1.3 5.8 2.1.7.8.7 1.3.7 1.5-.1.9-1 1.8-1.3 2-.1 0-.1 0-.1.1-.2.1-1.7 1.1-5.5 1.7-.3 0-.7.1-1.1.1-.3 0-.6.1-.9.2-2.2.5-3.8 2-4.5 4.2-.9 3.2.4 7.3 3 9.9 0 0 1.3 1 2 1.3l-.1-2.2c-3.5-2.8-4.9-9.7-.4-11.2l.4 11.2.1 2.2.3 9 .1 2.5.5 15.2c-4 2.9-7 6.5-6.1 11.3s6.5 7.2 6.8 7.3l.3 9.1c-2 1.4-3.7 3.2-4.7 5.5-.8 1.9-1.1 4.1-.4 6.4 1.5 4.5 5.5 6.7 5.7 6.7l.2 6.1c.1 2.5 2.1 4.4 4.6 4.4s4.5-1.9 4.6-4.4l.1-2.1c2-.9 3.8-2.7 4.3-5.7.7-5.5-3.8-7.9-3.8-8l.2-5.8c.7-.4 1.5-1.1 2.1-1.7zm-6.5-71.6s4.1-3.1.9-6.5c-2.3-2.4-5.6-2.8-7.3-2.8-.3 0-.5 0-.7 0l-.1-2.9c-.1-1.7.6-3.3 1.7-4.5s2.8-1.8 4.5-1.8 3.3.7 4.4 1.9c1.2 1.2 1.8 2.8 1.7 4.5l-1.5 46c-1.9 3-6.1 5.5-9 7.4l-1.3-39.1c5.1-.7 6.7-2.2 6.7-2.2zm-6.9 53.5.2 5.4c-1.4-.8-4.2-2.7-4.7-5.4-.6-3.3 1.1-6.2 5.3-9.3l1.8-1.2.6-.5c3.1-2 7-4.5 9-7.6.2-.3.3-.7.3-1l.4-12.6c1.3.6 4.7 2.4 6.8 6.6 1.6 3.1 1.2 11.3-6.7 16.3-.5.3-1.1.7-1.9 1.1-.4.2-1.7.9-2 1.1-3.1 1.7-6.5 3.6-8.6 5.5-.4.5-.6 1-.5 1.6zm10.1-5.3-.5 15.3c-.2.2-.3.5-.5.7-1.4 1.8-4.4 3.7-6.7 4.9l-.5-15.7c1.8-1.7 5.2-3.5 8.2-5.2zm-1.4 41.2c-.5 1.2-1 2.2-1.4 2.9s.1 1.5.8 1.5h.2s.2 0 .3-.1v1.3c-.1 1.4-1.2 2.5-2.6 2.5s-2.6-1.1-2.6-2.5l-.5-15c1.2-1.6 3-2.4 5.4-4.1.3-.2.7-.5 1-.7zm4.2-2.3c-.2 1.7-1.1 3-2.7 3.9.1-.2.2-.5.3-.8.1-.2.2-.5.2-.7l.3-7.7c.9.8 2.3 2.5 1.9 5.3zm-2.9-15.1c-.4.3-1.6 1.3-2 1.6l-.1.1c-.3.2-.5.4-.8.6-.7.5-1.3.9-1.9 1.3-1.5 1-2.9 1.9-3.9 3.2-.3.4-.4.8-.4 1.3l.2 6.4c-1.1-.8-2.9-2.5-3.7-4.9-.5-1.6-.4-3.3.3-5 .8-1.8 2.1-3.4 3.9-4.6.3-.2 1.5-.9 1.8-1 3.6-1.9 6.1-3.8 7.3-5.5.2-.3.4-.6.6-.8s.3-.6.3-1l.2-7.3c.1.1.2.1.2.2 1.9 1.7 3 4 3.1 6.6 0 2.7-1.1 5.2-3 7-.7.6-1.4 1.2-2.1 1.8z" fill="#424242" opacity=".2"/></svg>